<svg width="11" height="19" viewBox="0 0 11 19" fill="none" xmlns="http://www.w3.org/2000/svg">
<path fill-rule="evenodd" clip-rule="evenodd" d="M1.66707 0.874762C1.9124 0.874762 2.15774 0.968678 2.34461 1.15555L10.0113 8.82222C10.386 9.19693 10.386 9.80259 10.0113 10.1773L2.34461 17.844C1.9699 18.2187 1.36424 18.2187 0.989527 17.844C0.614819 17.4693 0.614819 16.8636 0.989527 16.4889L7.97865 9.49976L0.989528 2.51064C0.614819 2.13593 0.614819 1.53026 0.989528 1.15555C1.1764 0.968678 1.42174 0.874762 1.66707 0.874762Z" fill="#686E7F"/>
<path d="M1.66707 0.874762C1.9124 0.874762 2.15774 0.968678 2.34461 1.15555L10.0113 8.82222C10.386 9.19693 10.386 9.80259 10.0113 10.1773L2.34461 17.844C1.9699 18.2187 1.36424 18.2187 0.989527 17.844C0.614819 17.4693 0.614819 16.8636 0.989527 16.4889L7.97865 9.49976L0.989528 2.51064C0.614819 2.13593 0.614819 1.53026 0.989528 1.15555C1.1764 0.968678 1.42174 0.874762 1.66707 0.874762" stroke="#686E7F" stroke-width="1.27778"/>
</svg>
