<svg width="11" height="19" viewBox="0 0 11 19" fill="none" xmlns="http://www.w3.org/2000/svg">
<path fill-rule="evenodd" clip-rule="evenodd" d="M9.33305 18.1252C9.08772 18.1252 8.84239 18.0313 8.65551 17.8444L0.988844 10.1778C0.614136 9.80307 0.614136 9.19741 0.988845 8.8227L8.65551 1.15603C9.03022 0.781323 9.63589 0.781323 10.0106 1.15603C10.3853 1.53074 10.3853 2.13641 10.0106 2.51111L3.02147 9.50024L10.0106 16.4894C10.3853 16.8641 10.3853 17.4697 10.0106 17.8444C9.82372 18.0313 9.57839 18.1252 9.33305 18.1252Z" fill="#686E7F"/>
<path d="M9.33305 18.1252C9.08772 18.1252 8.84239 18.0313 8.65551 17.8444L0.988844 10.1778C0.614136 9.80307 0.614136 9.19741 0.988844 8.8227L8.65551 1.15603C9.03022 0.781323 9.63589 0.781323 10.0106 1.15603C10.3853 1.53074 10.3853 2.13641 10.0106 2.51111L3.02147 9.50024L10.0106 16.4894C10.3853 16.8641 10.3853 17.4697 10.0106 17.8444C9.82372 18.0313 9.57839 18.1252 9.33305 18.1252" stroke="#686E7F" stroke-width="1.27778"/>
</svg>
