<svg width="35" height="35" viewBox="0 0 35 35" fill="none" xmlns="http://www.w3.org/2000/svg">
<path d="M30.2206 2H5.52758C3.57935 2 2 3.57943 2 5.52777V30.2221C2 32.1705 3.57935 33.7499 5.52758 33.7499H30.2206C32.1689 33.7499 33.7482 32.1705 33.7482 30.2221V5.52777C33.7482 3.57943 32.1689 2 30.2206 2Z" stroke="#FF7400" stroke-width="2.01309" stroke-linecap="round" stroke-linejoin="round"/>
<path d="M11.7015 14.3475C13.1627 14.3475 14.3473 13.1629 14.3473 11.7016C14.3473 10.2403 13.1627 9.05566 11.7015 9.05566C10.2402 9.05566 9.05566 10.2403 9.05566 11.7016C9.05566 13.1629 10.2402 14.3475 11.7015 14.3475Z" stroke="#FF7400" stroke-width="2.01309" stroke-linecap="round" stroke-linejoin="round"/>
<path d="M33.7486 23.1671L24.9296 14.3477L5.52795 33.7504" stroke="#FF7400" stroke-width="2.01309" stroke-linecap="round" stroke-linejoin="round"/>
</svg>
