<svg width="20" height="20" viewBox="0 0 20 20" fill="none" xmlns="http://www.w3.org/2000/svg">
<circle cx="10" cy="10" r="10" fill="#4065F6"/>
<path d="M11.0574 17.2597C10.3507 17.2597 9.81069 17.053 9.43735 16.6397C9.06402 16.213 8.87735 15.6664 8.87735 14.9997V7.21969H11.1574V14.7997C11.1574 15.1064 11.204 15.313 11.2974 15.4197C11.3907 15.5264 11.5307 15.5797 11.7174 15.5797C11.7707 15.5797 11.824 15.5797 11.8774 15.5797C11.944 15.5797 12.004 15.573 12.0574 15.5597C12.1107 15.5597 12.1707 15.553 12.2374 15.5397L12.4774 16.9797C12.384 17.033 12.264 17.0797 12.1174 17.1197C11.9974 17.1597 11.844 17.193 11.6574 17.2197C11.484 17.2464 11.284 17.2597 11.0574 17.2597ZM10.0574 2.77969C10.484 2.77969 10.8107 2.90635 11.0374 3.15969C11.264 3.41302 11.3774 3.73969 11.3774 4.13969C11.3774 4.53969 11.2574 4.87302 11.0174 5.13969C10.7907 5.40635 10.4507 5.53969 9.99735 5.53969C9.57069 5.53969 9.23735 5.41302 8.99735 5.15969C8.77069 4.89302 8.65735 4.57302 8.65735 4.19969C8.65735 3.78635 8.77069 3.44635 8.99735 3.17969C9.23735 2.91302 9.59069 2.77969 10.0574 2.77969Z" fill="white"/>
</svg>
