<svg width="120" height="158" viewBox="0 0 120 158" fill="none" xmlns="http://www.w3.org/2000/svg">
<path d="M13.3 138.48C15.32 138.48 16.92 139.2 18.26 140.72L16.3 142.16C15.48 141.28 14.56 140.76 13.32 140.76C10.42 140.76 8.46 143 8.46 145.82C8.46 148.74 10.34 151.08 13.32 151.08C14.66 151.08 15.7 150.38 16.5 149.36L18.58 150.84C17.36 152.56 15.38 153.36 13.3 153.36C8.94 153.36 5.82 150.38 5.82 145.98C5.82 141.58 8.78 138.48 13.3 138.48ZM23.0114 153.24C21.0314 153.24 19.5114 152.12 19.5114 150.36C19.5114 148.14 21.2914 147.02 25.4114 147.02H26.1514V146.74C26.1514 145.62 25.2714 144.96 23.9514 144.96C22.9514 144.96 22.0514 145.36 21.3914 145.96L20.1314 144.7C20.9914 143.82 22.3314 143.16 24.2114 143.16C27.4914 143.16 28.3114 145 28.3114 147.26V153H26.1514V151.68H26.0914C25.4114 152.76 24.2914 153.24 23.0114 153.24ZM25.3114 148.7C23.1914 148.7 21.9114 149.16 21.9114 150.18C21.9114 151 22.7114 151.44 23.6114 151.44C25.2514 151.44 26.0114 150.52 26.0114 149.3V148.7H25.3114ZM30.9936 153V143.4H33.3936V144.92H33.4336C33.9536 143.82 35.0136 143.16 36.2736 143.16C36.6336 143.16 36.8136 143.22 37.1336 143.3V145.62C36.6736 145.5 36.3336 145.44 35.9736 145.44C34.1536 145.44 33.3936 146.72 33.3936 148V153H30.9936ZM42.7555 143.16C44.0955 143.16 45.3555 143.66 46.0755 144.84H46.1155V143.4H48.3955V152.22C48.3955 155.68 46.5955 157.8 42.9755 157.8C41.1755 157.8 39.5555 157.4 38.2155 156.22L39.6555 154.26C40.6155 155.14 41.6355 155.64 42.9555 155.64C45.1955 155.64 45.9955 154.48 45.9955 152.34V151.72H45.9555C45.2155 152.66 44.0555 153.12 42.8155 153.12C39.9955 153.12 38.0355 150.98 38.0355 148.2C38.0355 145.32 39.8355 143.16 42.7555 143.16ZM40.4355 148.18C40.4355 149.78 41.7155 150.96 43.2555 150.96C44.9355 150.96 46.1155 149.82 46.1155 148.14C46.1155 146.38 44.9555 145.32 43.2555 145.32C41.5955 145.32 40.4355 146.48 40.4355 148.18ZM54.0731 153.24C52.0931 153.24 50.5731 152.12 50.5731 150.36C50.5731 148.14 52.3531 147.02 56.4731 147.02H57.2131V146.74C57.2131 145.62 56.3331 144.96 55.0131 144.96C54.0131 144.96 53.1131 145.36 52.4531 145.96L51.1931 144.7C52.0531 143.82 53.3931 143.16 55.2731 143.16C58.5531 143.16 59.3731 145 59.3731 147.26V153H57.2131V151.68H57.1531C56.4731 152.76 55.3531 153.24 54.0731 153.24ZM56.3731 148.7C54.2531 148.7 52.9731 149.16 52.9731 150.18C52.9731 151 53.7731 151.44 54.6731 151.44C56.3131 151.44 57.0731 150.52 57.0731 149.3V148.7H56.3731ZM64.4553 153H62.0553V143.4H64.3353V144.94H64.3753C64.9553 143.68 66.0553 143.16 67.3153 143.16C70.1753 143.16 70.8153 145.38 70.8153 146.86V153H68.4153V148.02C68.4153 146.1 67.7953 145.32 66.6553 145.32C65.1153 145.32 64.4553 146.44 64.4553 147.72V153ZM81.1197 137.88H83.5197V153H81.2397V151.56H81.1997C80.4797 152.74 79.2197 153.24 77.8797 153.24C74.9597 153.24 73.1597 151.08 73.1597 148.2C73.1597 145.48 74.9597 143.16 77.7997 143.16C79.0797 143.16 80.2397 143.6 81.0597 144.62H81.1197V137.88ZM75.5597 148.2C75.5597 149.8 76.6997 151.08 78.3797 151.08C80.2997 151.08 81.1997 149.52 81.1997 148.2C81.1997 146.46 79.8997 145.32 78.3797 145.32C76.6997 145.32 75.5597 146.62 75.5597 148.2ZM91.0773 143.16C94.0173 143.16 96.2973 145.2 96.2973 148.2C96.2973 151.2 94.0173 153.24 91.0773 153.24C88.1373 153.24 85.8573 151.2 85.8573 148.2C85.8573 145.22 88.1573 143.16 91.0773 143.16ZM88.2573 148.2C88.2573 149.86 89.4573 151.08 91.0773 151.08C92.7573 151.08 93.8973 149.8 93.8973 148.2C93.8973 146.54 92.6973 145.32 91.0573 145.32C89.4573 145.32 88.2573 146.56 88.2573 148.2ZM100.244 150.04C101.084 150.04 101.844 150.68 101.844 151.56C101.844 152.44 101.104 153.12 100.244 153.12C99.4044 153.12 98.6444 152.46 98.6444 151.6C98.6444 150.72 99.3844 150.04 100.244 150.04ZM106.262 150.04C107.102 150.04 107.862 150.68 107.862 151.56C107.862 152.44 107.122 153.12 106.262 153.12C105.422 153.12 104.662 152.46 104.662 151.6C104.662 150.72 105.402 150.04 106.262 150.04ZM112.28 150.04C113.12 150.04 113.88 150.68 113.88 151.56C113.88 152.44 113.14 153.12 112.28 153.12C111.44 153.12 110.68 152.46 110.68 151.6C110.68 150.72 111.42 150.04 112.28 150.04Z" fill="white"/>
<circle cx="60" cy="60" r="52.5" fill="#D9D9D9" fill-opacity="0.01" stroke="white" stroke-width="15"/>
<path d="M88.0043 7.50001C104.852 17.4986 111.449 26.3601 119.004 47.5C115.315 54.8932 112.107 56.3054 105.004 55C100.866 34.3387 94.3806 26.5205 76.5043 19C76.3917 10.35 78.4625 7.42996 88.0043 7.50001Z" fill="#FF7400" stroke="#FF7400"/>
</svg>
