<svg width="23" height="23" viewBox="0 0 23 23" fill="none" xmlns="http://www.w3.org/2000/svg">
<circle cx="11.4924" cy="11.4922" r="9.95776" stroke="#FF7400" stroke-width="1.5"/>
<path d="M11.8856 8.19189C11.9929 8.19189 12.0799 8.2789 12.0799 8.38622V14.5748C12.0799 14.6821 11.9929 14.7691 11.8856 14.7691H10.6721C10.5648 14.7691 10.4778 14.6821 10.4778 14.5748V11.9019C10.4778 11.6854 10.177 11.6311 10.1014 11.834L9.05396 14.6427C9.02561 14.7187 8.95301 14.7691 8.87188 14.7691H7.84859C7.76755 14.7691 7.69502 14.7188 7.6666 14.643L6.60981 11.8204C6.53394 11.6177 6.2335 11.6721 6.2335 11.8885V14.5748C6.2335 14.6821 6.14649 14.7691 6.03917 14.7691H4.82567C4.71835 14.7691 4.63135 14.6821 4.63135 14.5748V8.38622C4.63135 8.2789 4.71835 8.19189 4.82567 8.19189H6.39303C6.47217 8.19189 6.5434 8.23988 6.57312 8.31322L8.18868 12.2988C8.25438 12.4609 8.484 12.4605 8.54913 12.2982L10.1478 8.31386C10.1773 8.24018 10.2487 8.19189 10.3281 8.19189H11.8856Z" fill="#FF7400"/>
<path d="M18.8302 10.3094C18.8302 10.6904 18.7428 11.0402 18.5679 11.3587C18.393 11.671 18.1244 11.924 17.7621 12.1176C17.3998 12.3113 16.9501 12.4081 16.4129 12.4081H15.6141C15.5068 12.4081 15.4198 12.4951 15.4198 12.6024V14.5748C15.4198 14.6821 15.3328 14.7691 15.2255 14.7691H14.012C13.9047 14.7691 13.8176 14.6821 13.8176 14.5748V8.38622C13.8176 8.2789 13.9047 8.19189 14.012 8.19189H16.4129C16.9376 8.19189 17.3811 8.28246 17.7434 8.4636C18.1057 8.64474 18.3774 8.89459 18.5585 9.21315C18.7396 9.5317 18.8302 9.89711 18.8302 10.3094ZM16.2911 11.1339C16.5972 11.1339 16.8252 11.062 16.9751 10.9184C17.125 10.7747 17.2 10.5717 17.2 10.3094C17.2 10.047 17.125 9.84401 16.9751 9.70035C16.8252 9.55669 16.5972 9.48486 16.2911 9.48486H15.6141C15.5068 9.48486 15.4198 9.57186 15.4198 9.67918V10.9395C15.4198 11.0469 15.5068 11.1339 15.6141 11.1339H16.2911Z" fill="#FF7400"/>
</svg>
