<svg width="25" height="25" viewBox="0 0 25 25" fill="none" xmlns="http://www.w3.org/2000/svg">
<circle cx="12.4924" cy="12.4924" r="12.4924" fill="white"/>
<circle cx="12.4924" cy="12.4922" r="9.95776" stroke="#FF7400" stroke-width="1.5"/>
<path d="M12.8856 9.19189C12.9929 9.19189 13.0799 9.2789 13.0799 9.38622V15.5748C13.0799 15.6821 12.9929 15.7691 12.8856 15.7691H11.6721C11.5648 15.7691 11.4778 15.6821 11.4778 15.5748V12.9019C11.4778 12.6854 11.177 12.6311 11.1014 12.834L10.054 15.6427C10.0256 15.7187 9.95301 15.7691 9.87188 15.7691H8.84859C8.76755 15.7691 8.69502 15.7188 8.6666 15.643L7.60981 12.8204C7.53394 12.6177 7.2335 12.6721 7.2335 12.8885V15.5748C7.2335 15.6821 7.14649 15.7691 7.03917 15.7691H5.82567C5.71835 15.7691 5.63135 15.6821 5.63135 15.5748V9.38622C5.63135 9.2789 5.71835 9.19189 5.82567 9.19189H7.39303C7.47217 9.19189 7.5434 9.23988 7.57312 9.31322L9.18868 13.2988C9.25438 13.4609 9.484 13.4605 9.54913 13.2982L11.1478 9.31386C11.1773 9.24018 11.2487 9.19189 11.3281 9.19189H12.8856Z" fill="#FF7400"/>
<path d="M19.8302 11.3094C19.8302 11.6904 19.7428 12.0402 19.5679 12.3587C19.393 12.671 19.1244 12.924 18.7621 13.1176C18.3998 13.3113 17.9501 13.4081 17.4129 13.4081H16.6141C16.5068 13.4081 16.4198 13.4951 16.4198 13.6024V15.5748C16.4198 15.6821 16.3328 15.7691 16.2255 15.7691H15.012C14.9047 15.7691 14.8176 15.6821 14.8176 15.5748V9.38622C14.8176 9.2789 14.9047 9.19189 15.012 9.19189H17.4129C17.9376 9.19189 18.3811 9.28246 18.7434 9.4636C19.1057 9.64474 19.3774 9.89459 19.5585 10.2131C19.7396 10.5317 19.8302 10.8971 19.8302 11.3094ZM17.2911 12.1339C17.5972 12.1339 17.8252 12.062 17.9751 11.9184C18.125 11.7747 18.2 11.5717 18.2 11.3094C18.2 11.047 18.125 10.844 17.9751 10.7004C17.8252 10.5567 17.5972 10.4849 17.2911 10.4849H16.6141C16.5068 10.4849 16.4198 10.5719 16.4198 10.6792V11.9395C16.4198 12.0469 16.5068 12.1339 16.6141 12.1339H17.2911Z" fill="#FF7400"/>
</svg>
