<svg width="107" height="93" viewBox="0 0 107 93" fill="none" xmlns="http://www.w3.org/2000/svg">
<path d="M2.256 89L3.28 86.408H8.192L9.248 89H11.552L6.672 77.672H4.928L0 89H2.256ZM5.744 80.072L7.488 84.68H3.968L5.744 80.072ZM16.1269 81.128C13.7909 81.128 12.3509 82.856 12.3509 85.16C12.3509 87.384 13.9189 89.096 16.1749 89.096C17.1669 89.096 18.0949 88.728 18.6869 87.976H18.7189V88.472C18.7189 90.184 18.0789 91.112 16.2869 91.112C15.2309 91.112 14.4149 90.712 13.6469 90.008L12.4949 91.576C13.5669 92.52 14.8629 92.84 16.3029 92.84C19.1989 92.84 20.6389 91.144 20.6389 88.376V81.32H18.8149V82.472H18.7829C18.2069 81.528 17.1989 81.128 16.1269 81.128ZM14.2709 85.144C14.2709 83.784 15.1989 82.856 16.5269 82.856C17.8869 82.856 18.8149 83.704 18.8149 85.112C18.8149 86.456 17.8709 87.368 16.5269 87.368C15.2949 87.368 14.2709 86.424 14.2709 85.144ZM22.913 89H24.833V85C24.833 83.976 25.441 82.952 26.897 82.952C27.185 82.952 27.457 83 27.825 83.096V81.24C27.569 81.176 27.425 81.128 27.137 81.128C26.129 81.128 25.281 81.656 24.865 82.536H24.833V81.32H22.913V89ZM32.7425 81.128C30.3905 81.128 28.5665 82.776 28.5665 85.16C28.5665 87.56 30.3905 89.192 32.7425 89.192C34.0545 89.192 35.1585 88.68 35.9905 87.656L34.6145 86.616C34.0705 87.288 33.4145 87.656 32.5505 87.656C31.4465 87.656 30.6145 86.936 30.4865 85.832H36.3425V85.288C36.3425 82.968 35.1745 81.128 32.7425 81.128ZM30.4865 84.392C30.6305 83.304 31.3185 82.568 32.4545 82.568C33.5905 82.568 34.4065 83.192 34.4225 84.392H30.4865ZM41.63 81.128C39.294 81.128 37.854 82.856 37.854 85.16C37.854 87.384 39.422 89.096 41.678 89.096C42.67 89.096 43.598 88.728 44.19 87.976H44.222V88.472C44.222 90.184 43.582 91.112 41.79 91.112C40.734 91.112 39.918 90.712 39.15 90.008L37.998 91.576C39.07 92.52 40.366 92.84 41.806 92.84C44.702 92.84 46.142 91.144 46.142 88.376V81.32H44.318V82.472H44.286C43.71 81.528 42.702 81.128 41.63 81.128ZM39.774 85.144C39.774 83.784 40.702 82.856 42.03 82.856C43.39 82.856 44.318 83.704 44.318 85.112C44.318 86.456 43.374 87.368 42.03 87.368C40.798 87.368 39.774 86.424 39.774 85.144ZM50.7041 89.192C51.7281 89.192 52.6241 88.808 53.1681 87.944H53.2161V89H54.9441V84.408C54.9441 82.6 54.2881 81.128 51.6641 81.128C50.1601 81.128 49.0881 81.656 48.4001 82.36L49.4081 83.368C49.9361 82.888 50.6561 82.568 51.4561 82.568C52.5121 82.568 53.2161 83.096 53.2161 83.992V84.216H52.6241C49.3281 84.216 47.9041 85.112 47.9041 86.888C47.9041 88.296 49.1201 89.192 50.7041 89.192ZM52.5441 85.56H53.1041V86.04C53.1041 87.016 52.4961 87.752 51.1841 87.752C50.4641 87.752 49.8241 87.4 49.8241 86.744C49.8241 85.928 50.8481 85.56 52.5441 85.56ZM57.1099 89H59.0299V85C59.0299 83.976 59.6379 82.952 61.0939 82.952C61.3819 82.952 61.6539 83 62.0219 83.096V81.24C61.7659 81.176 61.6219 81.128 61.3339 81.128C60.3259 81.128 59.4779 81.656 59.0619 82.536H59.0299V81.32H57.1099V89ZM67.367 81.32V82.952H68.951V89H70.871V82.952H72.647V81.32H70.871V79.864C70.871 78.776 71.255 78.344 72.103 78.344C72.359 78.344 72.583 78.376 72.903 78.456L73.031 76.824C72.663 76.744 72.103 76.712 71.831 76.712C69.831 76.712 68.951 77.608 68.951 80.12V81.32H67.367ZM77.78 81.128C75.444 81.128 73.604 82.776 73.604 85.16C73.604 87.56 75.428 89.192 77.78 89.192C80.132 89.192 81.956 87.56 81.956 85.16C81.956 82.76 80.132 81.128 77.78 81.128ZM75.524 85.16C75.524 83.848 76.484 82.856 77.764 82.856C79.076 82.856 80.036 83.832 80.036 85.16C80.036 86.44 79.124 87.464 77.78 87.464C76.484 87.464 75.524 86.488 75.524 85.16ZM84.5416 82.952V86.552C84.5416 88.488 85.2456 89.192 87.0536 89.192C87.4856 89.192 88.2056 89.112 88.5736 88.936V87.32C88.4136 87.448 88.0136 87.56 87.5336 87.56C86.7816 87.56 86.4616 87.176 86.4616 86.36V82.952H88.5736V81.32H86.4616V79.096H84.5416V81.32H82.9576V82.952H84.5416ZM93.9644 81.128C91.6284 81.128 89.7884 82.776 89.7884 85.16C89.7884 87.56 91.6124 89.192 93.9644 89.192C96.3164 89.192 98.1404 87.56 98.1404 85.16C98.1404 82.76 96.3164 81.128 93.9644 81.128ZM91.7084 85.16C91.7084 83.848 92.6684 82.856 93.9484 82.856C95.2604 82.856 96.2204 83.832 96.2204 85.16C96.2204 86.44 95.3084 87.464 93.9644 87.464C92.6684 87.464 91.7084 86.488 91.7084 85.16ZM102.662 81.128C101.35 81.128 99.59 81.736 99.59 83.608C99.59 85.176 100.79 85.544 101.83 85.784C102.806 86.008 103.734 86.136 103.734 86.872C103.734 87.4 103.158 87.752 102.454 87.752C101.798 87.752 101.286 87.528 100.63 86.808L99.35 88.008C100.134 88.888 101.142 89.192 102.326 89.192C104.23 89.192 105.654 88.344 105.654 86.728C105.654 85.144 104.518 84.712 103.334 84.44C102.374 84.216 101.51 84.104 101.51 83.48C101.51 82.984 102.006 82.664 102.63 82.664C103.27 82.664 103.75 82.92 104.134 83.448L105.414 82.296C104.854 81.544 103.862 81.128 102.662 81.128Z" fill="#FF7400"/>
<g clip-path="url(#clip0_2_5286)">
<rect x="23" y="10" width="60" height="60" rx="5" fill="#FF7400"/>
<path d="M45 47L54.5263 63.5H35.4737L45 47Z" fill="white"/>
<path d="M64 38L78.7224 63.5H49.2776L64 38Z" fill="white"/>
</g>
<path d="M73.88 9.56H83V0.44H85.64V9.56H94.76V12.2H85.64V21.32H83V12.2H73.88V9.56Z" fill="#FF7400"/>
<path d="M73.88 9.56V8.06H72.38V9.56H73.88ZM83 9.56V11.06H84.5V9.56H83ZM83 0.44V-1.06H81.5V0.44H83ZM85.64 0.44H87.14V-1.06H85.64V0.44ZM85.64 9.56H84.14V11.06H85.64V9.56ZM94.76 9.56H96.26V8.06H94.76V9.56ZM94.76 12.2V13.7H96.26V12.2H94.76ZM85.64 12.2V10.7H84.14V12.2H85.64ZM85.64 21.32V22.82H87.14V21.32H85.64ZM83 21.32H81.5V22.82H83V21.32ZM83 12.2H84.5V10.7H83V12.2ZM73.88 12.2H72.38V13.7H73.88V12.2ZM73.88 11.06H83V8.06H73.88V11.06ZM84.5 9.56V0.44H81.5V9.56H84.5ZM83 1.94H85.64V-1.06H83V1.94ZM84.14 0.44V9.56H87.14V0.44H84.14ZM85.64 11.06H94.76V8.06H85.64V11.06ZM93.26 9.56V12.2H96.26V9.56H93.26ZM94.76 10.7H85.64V13.7H94.76V10.7ZM84.14 12.2V21.32H87.14V12.2H84.14ZM85.64 19.82H83V22.82H85.64V19.82ZM84.5 21.32V12.2H81.5V21.32H84.5ZM83 10.7H73.88V13.7H83V10.7ZM75.38 12.2V9.56H72.38V12.2H75.38Z" fill="white"/>
<defs>
<clipPath id="clip0_2_5286">
<rect x="23" y="10" width="60" height="60" rx="5" fill="white"/>
</clipPath>
</defs>
</svg>
