<svg width="75" height="70" viewBox="0 0 75 70" fill="none" xmlns="http://www.w3.org/2000/svg">
<g clip-path="url(#clip0_862_1923)">
<rect y="10" width="60" height="60" rx="5" fill="#FF7400"/>
<path d="M22 47L31.5263 63.5H12.4737L22 47Z" fill="white"/>
<path d="M41 38L55.7224 63.5H26.2776L41 38Z" fill="white"/>
</g>
<path d="M50.88 9.56H60V0.44H62.64V9.56H71.76V12.2H62.64V21.32H60V12.2H50.88V9.56Z" fill="#FF7400"/>
<path d="M50.88 9.56V8.06H49.38V9.56H50.88ZM60 9.56V11.06H61.5V9.56H60ZM60 0.44V-1.06H58.5V0.44H60ZM62.64 0.44H64.14V-1.06H62.64V0.44ZM62.64 9.56H61.14V11.06H62.64V9.56ZM71.76 9.56H73.26V8.06H71.76V9.56ZM71.76 12.2V13.7H73.26V12.2H71.76ZM62.64 12.2V10.7H61.14V12.2H62.64ZM62.64 21.32V22.82H64.14V21.32H62.64ZM60 21.32H58.5V22.82H60V21.32ZM60 12.2H61.5V10.7H60V12.2ZM50.88 12.2H49.38V13.7H50.88V12.2ZM50.88 11.06H60V8.06H50.88V11.06ZM61.5 9.56V0.44H58.5V9.56H61.5ZM60 1.94H62.64V-1.06H60V1.94ZM61.14 0.44V9.56H64.14V0.44H61.14ZM62.64 11.06H71.76V8.06H62.64V11.06ZM70.26 9.56V12.2H73.26V9.56H70.26ZM71.76 10.7H62.64V13.7H71.76V10.7ZM61.14 12.2V21.32H64.14V12.2H61.14ZM62.64 19.82H60V22.82H62.64V19.82ZM61.5 21.32V12.2H58.5V21.32H61.5ZM60 10.7H50.88V13.7H60V10.7ZM52.38 12.2V9.56H49.38V12.2H52.38Z" fill="white"/>
<defs>
<clipPath id="clip0_862_1923">
<rect y="10" width="60" height="60" rx="5" fill="white"/>
</clipPath>
</defs>
</svg>
