<svg width="24" height="24" viewBox="0 0 24 24" fill="none" xmlns="http://www.w3.org/2000/svg">
<circle cx="12" cy="12" r="9.5" stroke="#FF7400"/>
<g clip-path="url(#clip0_2_9734)">
<path fill-rule="evenodd" clip-rule="evenodd" d="M12 19C15.866 19 19 15.866 19 12C19 8.134 15.866 5 12 5C8.134 5 5 8.134 5 12C5 15.866 8.134 19 12 19ZM15.3078 10.4953C15.564 10.239 15.564 9.82349 15.3078 9.56721C15.0515 9.31093 14.636 9.31093 14.3797 9.56721L10.9062 13.0407L9.62029 11.7547C9.36401 11.4984 8.94849 11.4984 8.69221 11.7547C8.43593 12.011 8.43593 12.4265 8.69221 12.6828L10.4422 14.4328C10.6985 14.689 11.114 14.689 11.3703 14.4328L15.3078 10.4953Z" fill="#FF7400"/>
</g>
<defs>
<clipPath id="clip0_2_9734">
<rect width="14" height="14" fill="white" transform="translate(5 5)"/>
</clipPath>
</defs>
</svg>
