<svg width="140" height="148" viewBox="0 0 140 148" fill="none" xmlns="http://www.w3.org/2000/svg">
<g clip-path="url(#clip0_2_4733)">
<path d="M92.1577 113.173H125.264L130.281 116.931V101.02C130.281 100.22 129.964 99.4535 129.399 98.8882C128.833 98.3229 128.067 98.0054 127.267 98.0054H92.1577C91.3583 98.0054 90.5916 98.3229 90.0264 98.8882C89.4611 99.4535 89.1436 100.22 89.1436 101.02V110.158C89.1435 110.554 89.2214 110.946 89.3728 111.312C89.5243 111.678 89.7463 112.01 90.0262 112.29C90.3061 112.57 90.6384 112.792 91.0041 112.943C91.3698 113.095 91.7618 113.173 92.1577 113.173Z" fill="#F4F4F4"/>
<path d="M126.739 102.229H92.6857C92.6531 102.228 92.6223 102.214 92.5997 102.191C92.5771 102.168 92.5645 102.136 92.5645 102.104C92.5645 102.071 92.5771 102.04 92.5997 102.016C92.6223 101.993 92.6531 101.979 92.6857 101.978H126.739C126.772 101.979 126.803 101.993 126.825 102.016C126.848 102.04 126.861 102.071 126.861 102.104C126.861 102.136 126.848 102.168 126.825 102.191C126.803 102.214 126.772 102.228 126.739 102.229Z" fill="white"/>
<path d="M126.739 106.001H92.6857C92.6531 106 92.6223 105.986 92.5997 105.963C92.5771 105.939 92.5645 105.908 92.5645 105.875C92.5645 105.843 92.5771 105.811 92.5997 105.788C92.6223 105.764 92.6531 105.751 92.6857 105.75H126.739C126.772 105.751 126.803 105.764 126.825 105.788C126.848 105.811 126.861 105.843 126.861 105.875C126.861 105.908 126.848 105.939 126.825 105.963C126.803 105.986 126.772 106 126.739 106.001Z" fill="white"/>
<path d="M126.739 109.773H106.514C106.481 109.773 106.449 109.759 106.426 109.736C106.402 109.712 106.389 109.68 106.389 109.647C106.389 109.613 106.402 109.581 106.426 109.558C106.449 109.534 106.481 109.521 106.514 109.521H126.739C126.772 109.521 126.804 109.534 126.828 109.558C126.851 109.581 126.865 109.613 126.865 109.647C126.865 109.68 126.851 109.712 126.828 109.736C126.804 109.759 126.772 109.773 126.739 109.773Z" fill="white"/>
<path d="M110.071 105.955L109.712 105.995L114.143 146.485L114.502 146.445L110.071 105.955Z" fill="#292A2E"/>
<path d="M121.547 123.631L119.367 145.196L119.726 145.232L121.906 123.668L121.547 123.631Z" fill="#292A2E"/>
<path d="M125.295 142.589H109.121V147.838H125.295V142.589Z" fill="#292A2E"/>
<path opacity="0.2" d="M125.295 142.589H109.121V147.838H125.295V142.589Z" fill="white"/>
<path d="M135.045 132.924C138.109 128.852 136.648 122.583 131.783 118.922C126.917 115.261 120.489 115.594 117.425 119.666C114.361 123.739 115.821 130.008 120.687 133.669C125.553 137.33 131.981 136.996 135.045 132.924Z" fill="#0CBC8B"/>
<path opacity="0.2" d="M135.045 132.924C138.109 128.852 136.648 122.583 131.783 118.922C126.917 115.261 120.489 115.594 117.425 119.666C114.361 123.739 115.821 130.008 120.687 133.669C125.553 137.33 131.981 136.996 135.045 132.924Z" fill="white"/>
<path opacity="0.5" d="M135.045 132.925C134.839 133.2 134.614 133.46 134.373 133.703C131 135.858 126.022 135.519 122.072 132.547C117.207 128.887 115.747 122.618 118.811 118.546C119.017 118.272 119.241 118.012 119.481 117.767C122.856 115.61 127.832 115.951 131.783 118.922C136.649 122.584 138.109 128.853 135.045 132.925Z" fill="white"/>
<path d="M112.473 117.475C117.294 113.754 118.604 107.373 115.4 103.222C112.195 99.0711 105.69 98.7224 100.87 102.443C96.0501 106.164 94.74 112.545 97.9441 116.696C101.148 120.847 107.653 121.196 112.473 117.475Z" fill="#0CBC8B"/>
<path opacity="0.2" d="M110.946 116.407C107.213 119.29 102.469 119.729 99.0298 117.853C98.632 117.502 98.2685 117.114 97.9444 116.694C94.7396 112.545 96.0497 106.163 100.87 102.443C104.603 99.5609 109.347 99.12 112.784 100.995C113.183 101.346 113.547 101.734 113.871 102.155C117.076 106.305 115.766 112.687 110.946 116.407Z" fill="white"/>
<path d="M136.986 56.559H94.3999L89.0039 60.6005V39.2075C89.004 38.4081 89.3215 37.6414 89.8868 37.0762C90.4521 36.5109 91.2188 36.1934 92.0182 36.1934H136.986C137.786 36.1934 138.552 36.5109 139.118 37.0762C139.683 37.6414 140 38.4081 140 39.2075V53.5452C140 54.3445 139.683 55.1111 139.117 55.6763C138.552 56.2414 137.786 56.559 136.986 56.559Z" fill="#F4F4F4"/>
<path d="M136.191 40.7258H92.8129C92.7961 40.7264 92.7792 40.7236 92.7634 40.7176C92.7477 40.7116 92.7332 40.7024 92.7211 40.6907C92.7089 40.6789 92.6992 40.6649 92.6926 40.6493C92.686 40.6338 92.6826 40.617 92.6826 40.6001C92.6826 40.5832 92.686 40.5665 92.6926 40.551C92.6992 40.5354 92.7089 40.5213 92.7211 40.5096C92.7332 40.4979 92.7477 40.4887 92.7634 40.4827C92.7792 40.4766 92.7961 40.4738 92.8129 40.4744H136.191C136.224 40.4756 136.255 40.4894 136.277 40.5128C136.3 40.5363 136.313 40.5676 136.313 40.6001C136.313 40.6327 136.3 40.664 136.277 40.6875C136.255 40.7109 136.224 40.7247 136.191 40.7258Z" fill="white"/>
<path d="M136.191 44.7815H92.8129C92.7961 44.7821 92.7792 44.7793 92.7634 44.7733C92.7477 44.7672 92.7332 44.7581 92.7211 44.7463C92.7089 44.7346 92.6992 44.7205 92.6926 44.705C92.686 44.6894 92.6826 44.6727 92.6826 44.6558C92.6826 44.6389 92.686 44.6222 92.6926 44.6066C92.6992 44.5911 92.7089 44.577 92.7211 44.5653C92.7332 44.5535 92.7477 44.5444 92.7634 44.5383C92.7792 44.5323 92.7961 44.5295 92.8129 44.5301H136.191C136.224 44.5313 136.255 44.545 136.277 44.5685C136.3 44.5919 136.313 44.6232 136.313 44.6558C136.313 44.6884 136.3 44.7197 136.277 44.7431C136.255 44.7666 136.224 44.7803 136.191 44.7815Z" fill="white"/>
<path d="M136.192 48.8372H92.8133C92.7799 48.8372 92.7479 48.824 92.7243 48.8004C92.7007 48.7768 92.6875 48.7448 92.6875 48.7115C92.6875 48.6781 92.7007 48.6461 92.7243 48.6225C92.7479 48.5989 92.7799 48.5857 92.8133 48.5857H136.192C136.225 48.5857 136.257 48.5989 136.281 48.6225C136.304 48.6461 136.318 48.6781 136.318 48.7115C136.318 48.7448 136.304 48.7768 136.281 48.8004C136.257 48.824 136.225 48.8372 136.192 48.8372Z" fill="white"/>
<path d="M128.649 52.8928H92.8129C92.7961 52.8934 92.7792 52.8906 92.7634 52.8846C92.7477 52.8786 92.7332 52.8694 92.7211 52.8577C92.7089 52.8459 92.6992 52.8319 92.6926 52.8163C92.686 52.8008 92.6826 52.784 92.6826 52.7671C92.6826 52.7502 92.686 52.7335 92.6926 52.7179C92.6992 52.7024 92.7089 52.6883 92.7211 52.6766C92.7332 52.6649 92.7477 52.6557 92.7634 52.6497C92.7792 52.6436 92.7961 52.6408 92.8129 52.6414H128.649C128.666 52.6408 128.683 52.6436 128.698 52.6497C128.714 52.6557 128.729 52.6649 128.741 52.6766C128.753 52.6883 128.763 52.7024 128.769 52.7179C128.776 52.7335 128.779 52.7502 128.779 52.7671C128.779 52.784 128.776 52.8008 128.769 52.8163C128.763 52.8319 128.753 52.8459 128.741 52.8577C128.729 52.8694 128.714 52.8786 128.698 52.8846C128.683 52.8906 128.666 52.8934 128.649 52.8928H128.649Z" fill="white"/>
<path d="M5.17251 98.4371H38.2779L43.2957 102.196V86.2838C43.2957 85.4844 42.9782 84.7178 42.4129 84.1525C41.8476 83.5872 41.081 83.2696 40.2816 83.2695H5.17251C4.37307 83.2695 3.60637 83.5871 3.04107 84.1524C2.47578 84.7177 2.1582 85.4844 2.1582 86.2838V95.4225C2.15816 95.8184 2.2361 96.2104 2.38756 96.5761C2.53902 96.9419 2.76105 97.2742 3.04096 97.5541C3.32087 97.8341 3.65318 98.0562 4.01891 98.2077C4.38464 98.3592 4.77664 98.4371 5.17251 98.4371Z" fill="#F4F4F4"/>
<path d="M39.7535 87.4937H5.69999C5.66664 87.4937 5.63464 87.4805 5.61106 87.4569C5.58747 87.4333 5.57422 87.4013 5.57422 87.368C5.57422 87.3346 5.58747 87.3026 5.61106 87.279C5.63464 87.2554 5.66664 87.2422 5.69999 87.2422H39.7535C39.7869 87.2422 39.8189 87.2554 39.8424 87.279C39.866 87.3026 39.8793 87.3346 39.8793 87.368C39.8793 87.4013 39.866 87.4333 39.8424 87.4569C39.8189 87.4805 39.7869 87.4937 39.7535 87.4937Z" fill="white"/>
<path d="M39.7538 91.2651H5.70032C5.66777 91.264 5.63695 91.2502 5.61434 91.2268C5.59174 91.2033 5.5791 91.172 5.5791 91.1394C5.5791 91.1069 5.59174 91.0756 5.61434 91.0521C5.63695 91.0287 5.66777 91.0149 5.70032 91.0138H39.7538C39.7707 91.0131 39.7876 91.0159 39.8033 91.022C39.8191 91.028 39.8335 91.0372 39.8457 91.0489C39.8579 91.0606 39.8675 91.0747 39.8741 91.0903C39.8808 91.1058 39.8842 91.1225 39.8842 91.1394C39.8842 91.1563 39.8808 91.1731 39.8741 91.1886C39.8675 91.2042 39.8579 91.2182 39.8457 91.23C39.8335 91.2417 39.8191 91.2509 39.8033 91.2569C39.7876 91.263 39.7707 91.2658 39.7538 91.2651Z" fill="white"/>
<path d="M39.7541 95.0369H19.5297C19.5129 95.0375 19.496 95.0347 19.4802 95.0286C19.4644 95.0226 19.45 95.0134 19.4379 95.0017C19.4257 94.99 19.416 94.9759 19.4094 94.9604C19.4028 94.9448 19.3994 94.9281 19.3994 94.9112C19.3994 94.8943 19.4028 94.8776 19.4094 94.862C19.416 94.8464 19.4257 94.8324 19.4379 94.8206C19.45 94.8089 19.4644 94.7998 19.4802 94.7937C19.496 94.7877 19.5129 94.7849 19.5297 94.7855H39.7541C39.771 94.7849 39.7878 94.7877 39.8036 94.7937C39.8194 94.7998 39.8338 94.8089 39.846 94.8206C39.8581 94.8324 39.8678 94.8464 39.8744 94.862C39.881 94.8776 39.8844 94.8943 39.8844 94.9112C39.8844 94.9281 39.881 94.9448 39.8744 94.9604C39.8678 94.9759 39.8581 94.99 39.846 95.0017C39.8338 95.0134 39.8194 95.0226 39.8036 95.0286C39.7878 95.0347 39.771 95.0375 39.7541 95.0369Z" fill="white"/>
<path d="M59.5457 24.9835H6.61887L0 29.9417V3.01414C0 2.21474 0.317561 1.44808 0.882822 0.882822C1.44808 0.317561 2.21474 0 3.01414 0L59.5457 0C60.3451 0 61.1118 0.317561 61.6771 0.882822C62.2423 1.44808 62.5599 2.21474 62.5599 3.01414V21.9694C62.5598 22.7688 62.2423 23.5354 61.677 24.1006C61.1118 24.6659 60.3451 24.9835 59.5457 24.9835Z" fill="#F4F4F4"/>
<path d="M57.8875 5.53158H4.67265C4.63929 5.53158 4.6073 5.51833 4.58371 5.49474C4.56013 5.47115 4.54688 5.43916 4.54688 5.4058C4.54688 5.37245 4.56013 5.34046 4.58371 5.31687C4.6073 5.29328 4.63929 5.28003 4.67265 5.28003H57.8877C57.9211 5.28003 57.9531 5.29328 57.9767 5.31687C58.0002 5.34046 58.0135 5.37245 58.0135 5.4058C58.0135 5.43916 58.0002 5.47115 57.9767 5.49474C57.9531 5.51833 57.9211 5.53158 57.8877 5.53158H57.8875Z" fill="white"/>
<path d="M57.8872 10.5068H4.67232C4.65543 10.5075 4.63859 10.5047 4.62281 10.4986C4.60703 10.4926 4.59262 10.4834 4.58046 10.4717C4.56829 10.4599 4.55862 10.4459 4.55201 10.4303C4.5454 10.4148 4.54199 10.398 4.54199 10.3811C4.54199 10.3642 4.5454 10.3475 4.55201 10.332C4.55862 10.3164 4.56829 10.3023 4.58046 10.2906C4.59262 10.2789 4.60703 10.2697 4.62281 10.2637C4.63859 10.2576 4.65543 10.2548 4.67232 10.2555H57.8874C57.9043 10.2548 57.9211 10.2576 57.9369 10.2637C57.9527 10.2697 57.9671 10.2789 57.9792 10.2906C57.9914 10.3023 58.0011 10.3164 58.0077 10.332C58.0143 10.3475 58.0177 10.3642 58.0177 10.3811C58.0177 10.398 58.0143 10.4148 58.0077 10.4303C58.0011 10.4459 57.9914 10.4599 57.9792 10.4717C57.9671 10.4834 57.9527 10.4926 57.9369 10.4986C57.9211 10.5047 57.9043 10.5075 57.8874 10.5068H57.8872Z" fill="white"/>
<path d="M57.8872 15.4824H4.67232C4.65543 15.483 4.63859 15.4802 4.62281 15.4742C4.60703 15.4682 4.59262 15.459 4.58046 15.4473C4.56829 15.4355 4.55862 15.4215 4.55201 15.4059C4.5454 15.3904 4.54199 15.3736 4.54199 15.3567C4.54199 15.3398 4.5454 15.3231 4.55201 15.3075C4.55862 15.292 4.56829 15.2779 4.58046 15.2662C4.59262 15.2545 4.60703 15.2453 4.62281 15.2393C4.63859 15.2332 4.65543 15.2304 4.67232 15.231H57.8874C57.9043 15.2304 57.9211 15.2332 57.9369 15.2393C57.9527 15.2453 57.9671 15.2545 57.9792 15.2662C57.9914 15.2779 58.0011 15.292 58.0077 15.3075C58.0143 15.3231 58.0177 15.3398 58.0177 15.3567C58.0177 15.3736 58.0143 15.3904 58.0077 15.4059C58.0011 15.4215 57.9914 15.4355 57.9792 15.4473C57.9671 15.459 57.9527 15.4682 57.9369 15.4742C57.9211 15.4802 57.9043 15.483 57.8874 15.4824H57.8872Z" fill="white"/>
<path d="M31.352 20.4575H4.67232C4.65543 20.4581 4.63859 20.4553 4.62281 20.4493C4.60703 20.4433 4.59262 20.4341 4.58046 20.4224C4.56829 20.4106 4.55862 20.3966 4.55201 20.381C4.5454 20.3655 4.54199 20.3487 4.54199 20.3318C4.54199 20.3149 4.5454 20.2982 4.55201 20.2826C4.55862 20.2671 4.56829 20.253 4.58046 20.2413C4.59262 20.2296 4.60703 20.2204 4.62281 20.2144C4.63859 20.2083 4.65543 20.2055 4.67232 20.2061H31.352C31.3845 20.2073 31.4153 20.2211 31.438 20.2445C31.4606 20.268 31.4732 20.2993 31.4732 20.3318C31.4732 20.3644 31.4606 20.3957 31.438 20.4191C31.4153 20.4426 31.3845 20.4563 31.352 20.4575Z" fill="white"/>
<path d="M26.1868 19.9266C26.1868 19.9266 24.3502 18.3367 24.096 14.9434C23.8992 12.316 26.1868 14.1629 26.1868 14.1629C26.1868 14.1629 26.0637 12.2698 27.4178 12.5476C28.7719 12.8254 29.4059 14.8479 29.4059 14.8479" fill="#0C0C0C"/>
<path d="M34.4697 13.2407C34.4697 13.2407 41.2041 14.4225 38.1365 23.4505H36.3096" fill="#0C0C0C"/>
<path d="M26.8848 32.8361C26.9146 32.8323 27.2464 38.3362 33.6403 37.8564C38.0669 37.5248 39.6452 32.8284 39.7475 32.8284C39.2701 32.727 38.6804 32.573 38.446 32.5202C37.9351 32.4016 37.4725 32.1304 37.1196 31.7424C36.7667 31.3545 36.5402 30.8683 36.4704 30.3485C36.341 29.5685 36.5605 25.5772 36.493 24.7878L29.6984 26.3044C29.7933 27.9715 30.4576 31.8362 28.1288 32.5202C27.7404 32.6333 27.323 32.7374 26.8848 32.8361Z" fill="#E98862"/>
<path d="M29.6025 30.9407C29.709 30.5977 29.7775 30.2441 29.8069 29.8862C29.8816 29.0694 29.8667 28.2469 29.7625 27.4334C31.1435 27.247 32.4445 26.677 33.5177 25.7881C33.644 26.254 34.3378 28.2901 34.1458 28.7329C33.7825 29.5701 32.0761 30.9407 29.6025 30.9407Z" fill="#0C0C0C"/>
<path d="M30.8085 29.6115C33.4989 29.5508 36.8135 28.0755 37.103 24.448L37.3641 21.1749C37.6536 17.547 35.9832 14.4543 32.5677 14.1818C29.1523 13.9093 26.3647 16.6461 26.0752 20.2736L25.9597 21.7227C25.9287 22.2209 25.9317 22.7206 25.9686 23.2185C26.0566 24.5348 26.1954 26.5361 26.991 27.9378C27.742 29.2608 29.0895 29.6496 30.8085 29.6115Z" fill="#E98862"/>
<path d="M29.7896 26.2093C29.2359 26.1973 28.6929 26.0553 28.2042 25.7949C28.1841 25.7842 28.1691 25.7662 28.1622 25.7446C28.1554 25.7229 28.1573 25.6995 28.1676 25.6793C28.1779 25.659 28.1957 25.6437 28.2172 25.6365C28.2387 25.6293 28.2622 25.6308 28.2826 25.6407C29.3371 26.1765 30.3273 26.1748 31.1463 25.6358C31.1628 25.6243 31.1799 25.6138 31.1975 25.6042C31.2077 25.5992 31.2188 25.5963 31.2302 25.5956C31.2415 25.5949 31.2529 25.5965 31.2636 25.6002C31.2744 25.6039 31.2843 25.6096 31.2928 25.6171C31.3013 25.6247 31.3082 25.6338 31.3132 25.644C31.3182 25.6542 31.3211 25.6653 31.3218 25.6767C31.3225 25.688 31.321 25.6994 31.3173 25.7101C31.3136 25.7208 31.3078 25.7308 31.3003 25.7393C31.2928 25.7478 31.2837 25.7547 31.2734 25.7597C31.2668 25.7633 31.2569 25.7704 31.2414 25.7803C30.811 26.0647 30.3054 26.214 29.7896 26.2093Z" fill="#0C0C0C"/>
<path d="M29.7603 27.0289C29.6602 27.0284 29.5603 27.0194 29.4617 27.0018C29.4503 27.0002 29.4393 26.9962 29.4294 26.9902C29.4195 26.9843 29.4109 26.9764 29.4041 26.967C29.3974 26.9576 29.3925 26.947 29.3899 26.9357C29.3873 26.9245 29.387 26.9128 29.389 26.9014C29.391 26.89 29.3952 26.8791 29.4015 26.8694C29.4077 26.8597 29.4159 26.8513 29.4255 26.8448C29.435 26.8383 29.4458 26.8337 29.4571 26.8315C29.4684 26.8292 29.4801 26.8292 29.4915 26.8315C30.0847 26.935 30.3881 26.6803 30.4008 26.6694C30.418 26.6543 30.4406 26.6466 30.4635 26.6481C30.4863 26.6496 30.5077 26.6602 30.5228 26.6774C30.5379 26.6947 30.5456 26.7172 30.5441 26.7401C30.5426 26.763 30.5321 26.7844 30.5148 26.7995C30.2974 26.9608 30.0308 27.0419 29.7603 27.0289Z" fill="#0C0C0C"/>
<path d="M27.0879 21.9661C27.3209 21.9661 27.5098 21.7772 27.5098 21.5442C27.5098 21.3112 27.3209 21.1223 27.0879 21.1223C26.8549 21.1223 26.666 21.3112 26.666 21.5442C26.666 21.7772 26.8549 21.9661 27.0879 21.9661Z" fill="#0C0C0C"/>
<path d="M30.999 21.9925C31.232 21.9925 31.4209 21.8036 31.4209 21.5706C31.4209 21.3376 31.232 21.1487 30.999 21.1487C30.766 21.1487 30.5771 21.3376 30.5771 21.5706C30.5771 21.8036 30.766 21.9925 30.999 21.9925Z" fill="#0C0C0C"/>
<path d="M36.8026 25.5358C37.8405 25.6184 38.7705 24.5753 38.8533 23.5375C38.9362 22.4996 38.1404 21.86 37.1025 21.7771L36.5121 22.4299L35.9102 25.4645L36.8026 25.5358Z" fill="#E98862"/>
<path d="M35.8805 23.7972C35.8805 23.7972 35.8739 18.6364 34.3375 18.2149C33.3142 17.9343 30.6996 19.2371 28.399 18.6364C27.3922 18.3736 26.4079 18.5612 26.2772 19.0362C26.2254 19.2242 25.7739 16.4416 27.5097 14.469C28.8917 12.8985 33.0829 12.7096 34.939 13.3796C40.0785 15.2341 37.3012 22.0178 37.3012 22.0178L36.9488 23.7732L35.8805 23.7972Z" fill="#0C0C0C"/>
<path d="M29.2422 24.9548H29.2356C28.901 24.9291 28.3428 24.8485 28.3618 24.5981C28.3783 24.3908 29.1183 22.1962 29.2026 21.9466C29.2103 21.9257 29.2259 21.9086 29.246 21.899C29.2661 21.8894 29.2892 21.888 29.3103 21.8951C29.3314 21.9023 29.3489 21.9174 29.359 21.9373C29.3692 21.9571 29.3711 21.9801 29.3645 22.0014C29.0359 22.9733 28.5432 24.4704 28.5321 24.6114C28.5605 24.6729 28.9022 24.7578 29.2485 24.7845C29.2703 24.7864 29.2906 24.7966 29.3052 24.8131C29.3197 24.8295 29.3273 24.8509 29.3265 24.8728C29.3257 24.8947 29.3165 24.9155 29.3008 24.9308C29.2851 24.9462 29.2642 24.9549 29.2422 24.9552V24.9548Z" fill="#0C0C0C"/>
<path d="M28.2748 20.2485C28.0047 20.1371 27.7101 20.0988 27.4206 20.1374C27.2731 20.1559 27.1292 20.1966 26.9939 20.2582C26.8557 20.3204 26.7259 20.3996 26.6075 20.4941L26.5983 20.501C26.5675 20.5209 26.5305 20.5287 26.4944 20.5229C26.4582 20.5172 26.4255 20.4983 26.4024 20.4699C26.3793 20.4414 26.3675 20.4055 26.3693 20.369C26.3711 20.3324 26.3863 20.2978 26.4121 20.2718C26.5433 20.1499 26.6894 20.045 26.8468 19.9596C27.0065 19.8724 27.1784 19.8095 27.3567 19.7731C27.5353 19.7349 27.7183 19.7213 27.9006 19.7327C28.0882 19.7425 28.2735 19.7791 28.4509 19.8413C28.5058 19.8614 28.5505 19.9023 28.5754 19.9551C28.6004 20.008 28.6035 20.0686 28.5841 20.1237C28.5646 20.1788 28.5243 20.2241 28.4717 20.2497C28.4192 20.2753 28.3587 20.2791 28.3033 20.2604C28.2979 20.2586 28.2927 20.2564 28.2876 20.2543L28.2748 20.2485Z" fill="#0C0C0C"/>
<path d="M30.7498 19.8766C31.1018 19.7556 31.4799 19.7322 31.844 19.8087C32.0223 19.8451 32.1942 19.908 32.3539 19.9953C32.5113 20.0806 32.6574 20.1856 32.7885 20.3075C32.817 20.3328 32.8346 20.368 32.8377 20.4059C32.8409 20.4438 32.8293 20.4815 32.8053 20.5111C32.7814 20.5406 32.747 20.5598 32.7093 20.5646C32.6715 20.5695 32.6334 20.5596 32.6028 20.537L32.5931 20.5297C32.4747 20.4352 32.3449 20.356 32.2068 20.2938C32.0715 20.2322 31.9276 20.1914 31.78 20.1729C31.6333 20.1525 31.4845 20.1525 31.3378 20.1729C31.1959 20.191 31.0571 20.2283 30.9251 20.2836L30.9128 20.2891C30.8861 20.3009 30.8573 20.3073 30.8281 20.308C30.799 20.3087 30.77 20.3037 30.7427 20.2932C30.7155 20.2826 30.6906 20.2669 30.6695 20.2467C30.6484 20.2266 30.6314 20.2025 30.6196 20.1758C30.6078 20.1491 30.6014 20.1204 30.6007 20.0912C30.5999 20.0621 30.605 20.033 30.6155 20.0058C30.626 19.9786 30.6418 19.9537 30.6619 19.9326C30.6821 19.9115 30.7062 19.8945 30.7328 19.8827C30.7394 19.8807 30.7451 19.8786 30.7498 19.8766Z" fill="#0C0C0C"/>
<path d="M31.1117 14.7341C31.424 13.6181 31.0626 12.5415 30.3045 12.3293C29.5463 12.1171 28.6786 12.8498 28.3663 13.9657C28.054 15.0817 28.4154 16.1583 29.1735 16.3705C29.9316 16.5827 30.7994 15.85 31.1117 14.7341Z" fill="#0C0C0C"/>
<path d="M37.7061 125.818C37.7061 125.818 42.0966 128.249 41.2149 132.043C40.3331 135.838 43.5434 135.908 43.5434 135.908L47.76 121.658L40.6403 119.551L37.7061 125.818Z" fill="url(#paint0_linear_2_4733)"/>
<path d="M20.8499 64.9952C20.8499 64.9952 12.6936 97.3303 14.9375 102.117C17.1433 106.822 39.986 127.73 39.986 127.73L44.1011 120.082L26.6096 98.9646C26.6096 98.9646 31.5797 87.526 34.445 78.731C36.1723 73.4293 38.0466 68.6741 38.3225 63.105L20.8499 64.9952Z" fill="#262626"/>
<path d="M32.8791 106.373L30.5244 103.691L31.1373 119.433L33.7619 121.928L32.8791 106.373Z" fill="#0A0A0A"/>
<path d="M32.5367 84.3029C32.5367 84.3029 32.9658 75.5154 32.1486 77.2012C30.6743 80.2445 30.2891 90.0561 30.2891 90.0561L32.5367 84.3029Z" fill="#0A0A0A"/>
<path d="M35.6177 139.942C35.6177 139.942 34.8164 144.097 30.9274 144.328C27.0384 144.559 27.8819 147.657 27.8819 147.657H42.743V140.232L35.6177 139.942Z" fill="url(#paint1_linear_2_4733)"/>
<path d="M47.3825 64.175C47.3825 64.175 47.4485 63.869 47.4875 65.6586C47.7177 76.2207 43.3993 142.593 43.3993 142.593L33.6339 142.51L31.0195 63.7458L47.3825 64.175Z" fill="#262626"/>
<path d="M18.9402 44.9534C19.1416 47.3194 20.6165 62.0809 20.8101 64.9952H47.4967C47.6474 62.3668 47.8292 50.8731 48.4009 45.7328C48.9466 40.8279 50.0172 38.1948 49.2325 36.7447C47.95 34.3746 44.4458 33.1827 42.0564 32.8592C40.5973 32.6611 38.4026 32.52 38.4026 32.52C38.4026 32.52 38.2168 36.2789 33.7861 36.4882C27.7548 36.7728 28.1576 32.52 28.1277 32.52C25.9379 32.52 21.7936 33.0439 20.203 34.1254C16.6269 36.5575 18.5127 39.9393 18.9402 44.9534Z" fill="url(#paint2_linear_2_4733)"/>
<path d="M20.521 35.7317L14.3067 42.1607L8.64748 39.8735L2.64923 54.7146L2.61209 54.8033C2.20036 55.8283 2.16286 56.9656 2.50617 58.0155C2.84949 59.0655 3.55167 59.9609 4.48946 60.5447C5.42725 61.1284 6.54069 61.3632 7.63434 61.2078C8.72798 61.0523 9.73191 60.5166 10.4699 59.6946L26.7612 41.5449L20.521 35.7317Z" fill="url(#paint3_linear_2_4733)"/>
<path d="M25.9923 33.7749C25.9438 33.698 25.8802 33.6318 25.8053 33.5803C25.7304 33.5288 25.6458 33.4931 25.5567 33.4754C25.4675 33.4577 25.3757 33.4583 25.2868 33.4772C25.1979 33.4962 25.1138 33.533 25.0396 33.5855C24.8996 33.6922 24.8052 33.8481 24.7757 34.0216C24.7462 34.1952 24.7836 34.3734 24.8805 34.5204L25.1895 34.9696L21.7926 32.8302C21.7224 32.7861 21.6443 32.7562 21.5626 32.7422C21.4809 32.7282 21.3973 32.7305 21.3165 32.7488C21.2357 32.7672 21.1593 32.8013 21.0916 32.8492C21.024 32.897 20.9664 32.9578 20.9223 33.0279C20.8781 33.098 20.8482 33.1761 20.8342 33.2578C20.8203 33.3395 20.8225 33.4232 20.8409 33.504C20.8592 33.5848 20.8933 33.6612 20.9412 33.7288C20.9891 33.7965 21.0498 33.854 21.1199 33.8982L22.5345 34.7895C22.5309 34.7926 22.5276 34.7961 22.5248 34.7999C22.3627 34.7391 22.1835 34.7433 22.0245 34.8118C21.8656 34.8804 21.7394 35.0078 21.6724 35.1673C21.6142 35.3142 21.6086 35.4767 21.6566 35.6273C21.7045 35.7779 21.803 35.9073 21.9353 35.9936L22.1237 36.1212C22.1223 36.1288 22.1223 36.1365 22.1237 36.1441C21.9771 36.0877 21.8153 36.0848 21.6668 36.1357C21.5182 36.1867 21.3924 36.2883 21.3112 36.4227C21.2257 36.5766 21.2019 36.7572 21.2445 36.928C21.2871 37.0988 21.3929 37.2471 21.5407 37.3428L22.005 37.6574C21.9947 37.6578 21.9847 37.6607 21.9759 37.6659C21.9671 37.671 21.9596 37.6783 21.9543 37.6871C21.9486 37.6971 21.946 37.7086 21.9467 37.7201C21.8049 37.7061 21.6624 37.7379 21.54 37.8107C21.4175 37.8835 21.3216 37.9936 21.2662 38.1248C21.208 38.2718 21.2024 38.4343 21.2504 38.5849C21.2983 38.7354 21.3968 38.8648 21.5291 38.9511L24.0431 40.6608C24.5988 41.0372 25.2542 41.2391 25.9253 41.2406C26.5965 41.2421 27.2528 41.0431 27.8101 40.6692L29.6046 39.4653L25.9923 33.7749Z" fill="#E98862"/>
<g opacity="0.2">
<path d="M23.9463 35.7479C23.939 35.7464 23.9321 35.7437 23.9258 35.7398L22.5416 34.8904C22.5346 34.8861 22.5285 34.8804 22.5236 34.8737C22.5188 34.867 22.5153 34.8594 22.5134 34.8514C22.5096 34.8351 22.5123 34.818 22.5211 34.8038C22.5298 34.7896 22.5439 34.7795 22.5601 34.7756C22.5763 34.7718 22.5934 34.7745 22.6076 34.7833L23.9917 35.6327C24.0045 35.6403 24.0141 35.6522 24.019 35.6663C24.0238 35.6804 24.0235 35.6957 24.018 35.7096C24.0126 35.7235 24.0024 35.735 23.9893 35.742C23.9762 35.7491 23.961 35.7513 23.9464 35.7482L23.9463 35.7479Z" fill="#0C0C0C"/>
<path d="M23.2564 36.8689C23.2489 36.8674 23.2418 36.8645 23.2354 36.8605L22.1528 36.1838C22.14 36.1744 22.1312 36.1606 22.1281 36.145C22.1251 36.1295 22.128 36.1133 22.1364 36.0998C22.1447 36.0864 22.1578 36.0765 22.1731 36.0723C22.1884 36.0681 22.2047 36.0698 22.2188 36.0771L23.3014 36.7539C23.3143 36.7615 23.3241 36.7735 23.329 36.7876C23.3339 36.8018 23.3335 36.8173 23.328 36.8312C23.3225 36.8451 23.3122 36.8567 23.2989 36.8637C23.2857 36.8707 23.2703 36.8727 23.2557 36.8694L23.2564 36.8689Z" fill="#0C0C0C"/>
<path d="M22.516 38.0876C22.509 38.0862 22.5024 38.0836 22.4963 38.08L21.9775 37.7726C21.97 37.7686 21.9635 37.7631 21.9582 37.7565C21.9528 37.7499 21.9489 37.7423 21.9467 37.7341C21.9444 37.7259 21.9438 37.7174 21.9449 37.7089C21.946 37.7005 21.9488 37.6924 21.9531 37.6851C21.9574 37.6778 21.9632 37.6715 21.97 37.6665C21.9769 37.6614 21.9847 37.6579 21.9929 37.6559C22.0012 37.654 22.0098 37.6538 22.0181 37.6553C22.0265 37.6567 22.0345 37.6599 22.0416 37.6645L22.5602 37.9718C22.5728 37.9795 22.5822 37.9913 22.587 38.0052C22.5918 38.0192 22.5915 38.0343 22.5862 38.0481C22.581 38.0618 22.5711 38.0733 22.5582 38.0804C22.5454 38.0876 22.5304 38.0901 22.516 38.0874V38.0876Z" fill="#0C0C0C"/>
</g>
<path d="M14.931 42.1523H20.2059C20.3421 42.1523 20.4766 42.1221 20.5997 42.0639C20.7228 42.0057 20.8315 41.9209 20.9178 41.8156C21.0042 41.7103 21.0662 41.5872 21.0993 41.4551C21.1323 41.323 21.1357 41.1852 21.1091 41.0517L19.0221 30.5637C18.9803 30.3534 18.8664 30.1644 18.7001 30.0291C18.5338 29.8938 18.3255 29.8208 18.1112 29.8225L12.9706 29.8658C12.836 29.867 12.7034 29.8976 12.582 29.9555C12.4606 30.0135 12.3533 30.0973 12.2678 30.2012C12.1822 30.305 12.1205 30.4263 12.0868 30.5566C12.0532 30.6869 12.0485 30.8229 12.0731 30.9552L14.0258 41.3998C14.0651 41.6112 14.1771 41.8021 14.3424 41.9396C14.5078 42.077 14.716 42.1523 14.931 42.1523Z" fill="#262626"/>
<path d="M18.9938 36.3116C18.913 36.1903 18.7955 36.0982 18.6584 36.0489C18.5214 35.9995 18.3721 35.9955 18.2325 36.0374C18.2324 36.0289 18.2302 36.0205 18.2261 36.0131C18.222 36.0056 18.2161 35.9993 18.209 35.9946C18.2019 35.9899 18.1938 35.9871 18.1853 35.9863C18.1768 35.9855 18.1683 35.9868 18.1604 35.99L18.5699 35.5815C18.6994 35.4575 18.777 35.289 18.787 35.1101C18.7969 34.9311 18.7386 34.755 18.6237 34.6174C18.5168 34.4982 18.3713 34.4205 18.2128 34.398C18.0543 34.3754 17.8929 34.4095 17.757 34.4941C17.757 34.4873 17.7517 34.4817 17.7496 34.4751L17.9183 34.3071C18.0342 34.1954 18.1079 34.0472 18.1271 33.8874C18.1462 33.7276 18.1096 33.5662 18.0234 33.4303C17.9676 33.3462 17.8938 33.2756 17.8074 33.2234C17.721 33.1713 17.6241 33.139 17.5237 33.1289C17.4233 33.1188 17.3219 33.131 17.2268 33.1648C17.1317 33.1986 17.0453 33.2531 16.9738 33.3243L16.5848 33.7124C16.5831 33.7101 16.5838 33.7068 16.5818 33.7046C16.5798 33.7025 16.5747 33.7023 16.5717 33.7002C16.6543 33.5697 16.6901 33.4152 16.6733 33.2617C16.6564 33.1083 16.588 32.9651 16.4791 32.8557C16.2162 32.555 15.7471 32.702 15.4955 32.9529L13.1218 35.2776L13.1943 35.1692L13.5302 34.3127C13.599 34.1472 13.6025 33.9617 13.5398 33.7938C13.4771 33.6258 13.3531 33.488 13.1926 33.408C13.1084 33.3696 13.0172 33.3488 12.9247 33.3469C12.8321 33.3449 12.7402 33.3618 12.6544 33.3965C12.5686 33.4312 12.4908 33.4831 12.4257 33.5489C12.3606 33.6147 12.3095 33.6931 12.2757 33.7792L10.3115 38.6382C10.3115 38.6382 14.4397 41.6258 15.4297 40.6382L18.889 37.1885C19.0049 37.0768 19.0787 36.9285 19.0978 36.7687C19.1169 36.6089 19.0801 36.4474 18.9938 36.3116Z" fill="#E98862"/>
<g opacity="0.2">
<path d="M14.3068 35.9034C14.3185 35.9149 14.3343 35.9213 14.3507 35.9213C14.3671 35.9213 14.3828 35.9149 14.3946 35.9034L16.5801 33.793C16.5864 33.7873 16.5914 33.7805 16.5949 33.7728C16.5984 33.7652 16.6004 33.7569 16.6007 33.7485C16.6009 33.7401 16.5995 33.7317 16.5965 33.7239C16.5935 33.716 16.5889 33.7089 16.5831 33.7028C16.5772 33.6968 16.5702 33.6919 16.5625 33.6886C16.5547 33.6853 16.5464 33.6836 16.538 33.6836C16.5296 33.6836 16.5212 33.6852 16.5135 33.6885C16.5057 33.6917 16.4987 33.6965 16.4928 33.7025L14.3073 35.8135C14.3013 35.8192 14.2966 35.8261 14.2933 35.8337C14.29 35.8412 14.2882 35.8494 14.2881 35.8577C14.288 35.8659 14.2894 35.8741 14.2925 35.8818C14.2955 35.8895 14.3 35.8965 14.3058 35.9024L14.3068 35.9034Z" fill="#0C0C0C"/>
<path d="M15.211 36.893C15.2228 36.9044 15.2385 36.9108 15.2549 36.9108C15.2713 36.9108 15.2871 36.9044 15.2988 36.893L17.7379 34.5377C17.7439 34.532 17.7486 34.5252 17.7519 34.5176C17.7552 34.51 17.757 34.5019 17.7572 34.4936C17.7573 34.4853 17.7558 34.4771 17.7528 34.4694C17.7498 34.4617 17.7453 34.4547 17.7395 34.4488C17.7277 34.4373 17.7119 34.4307 17.6954 34.4304C17.6788 34.4302 17.6628 34.4362 17.6506 34.4473L15.2115 36.803C15.1995 36.8146 15.1927 36.8305 15.1924 36.8472C15.1921 36.8639 15.1985 36.88 15.21 36.892L15.211 36.893Z" fill="#0C0C0C"/>
<path d="M16.1838 37.9704C16.1955 37.9819 16.2113 37.9883 16.2277 37.9883C16.2441 37.9883 16.2598 37.9819 16.2716 37.9704L18.2173 36.0915C18.2235 36.0859 18.2285 36.079 18.232 36.0714C18.2356 36.0637 18.2375 36.0554 18.2378 36.047C18.238 36.0386 18.2366 36.0302 18.2336 36.0224C18.2305 36.0145 18.2259 36.0074 18.2201 36.0013C18.2142 35.9953 18.2072 35.9905 18.1994 35.9872C18.1917 35.9839 18.1834 35.9822 18.1749 35.9822C18.1665 35.9822 18.1582 35.9839 18.1504 35.9871C18.1427 35.9904 18.1357 35.9952 18.1298 36.0013L16.1842 37.8808C16.1723 37.8924 16.1654 37.9082 16.165 37.9249C16.1647 37.9416 16.171 37.9577 16.1826 37.9697L16.1838 37.9704Z" fill="#0C0C0C"/>
</g>
<path d="M9.63799 37.3447L17.2012 40.2963L11.4477 56.9077L2.59277 54.5955L9.63799 37.3447Z" fill="url(#paint4_linear_2_4733)"/>
<path d="M35.1963 59.8512C34.3634 59.8511 33.5454 59.6305 32.8255 59.2116C32.1056 58.7927 31.5095 58.1906 31.0979 57.4666L22.5498 41.5367L29.669 36.9865L35.1095 46.1985L40.99 36.0376L48.6262 41.64L39.3362 57.3926C38.9341 58.1301 38.3423 58.7468 37.6219 59.1789C36.9016 59.611 36.0789 59.8428 35.2389 59.8503L35.1963 59.8512Z" fill="url(#paint5_linear_2_4733)"/>
<path d="M35.1967 59.9139C34.3529 59.9129 33.5244 59.6889 32.795 59.2646C32.0657 58.8402 31.4615 58.2307 31.0436 57.4976L22.4947 41.5662C22.4873 41.5523 22.4853 41.536 22.4894 41.5207C22.4934 41.5054 22.503 41.4922 22.5164 41.4837L29.6355 36.9335C29.6426 36.9289 29.6506 36.9258 29.6589 36.9244C29.6673 36.923 29.6758 36.9234 29.684 36.9254C29.6922 36.9274 29.6999 36.931 29.7067 36.936C29.7135 36.941 29.7192 36.9473 29.7235 36.9545L35.1095 46.0745L39.1434 39.1769C39.1518 39.1625 39.1657 39.152 39.1818 39.1478C39.1979 39.1435 39.2151 39.1459 39.2295 39.1543C39.2439 39.1627 39.2544 39.1766 39.2586 39.1927C39.2628 39.2088 39.2605 39.226 39.252 39.2404L35.164 46.2303C35.1585 46.2398 35.1506 46.2476 35.1411 46.253C35.1316 46.2585 35.1208 46.2614 35.1099 46.2614C35.0989 46.2614 35.0882 46.2585 35.0787 46.2531C35.0692 46.2477 35.0613 46.2399 35.0557 46.2305L29.6484 37.0745L22.6334 41.5582L31.1541 57.4368C31.5609 58.1503 32.1492 58.7436 32.8592 59.1565C33.5692 59.5695 34.3757 59.7874 35.197 59.7883H35.2391C36.0678 59.7805 36.8795 59.5515 37.5901 59.1251C38.3008 58.6987 38.8847 58.0903 39.2816 57.3627L47.6014 43.1781C47.6098 43.1637 47.6236 43.1532 47.6398 43.149C47.6559 43.1447 47.6731 43.1471 47.6875 43.1555C47.7019 43.1639 47.7123 43.1778 47.7166 43.1939C47.7208 43.21 47.7184 43.2272 47.71 43.2416L39.391 57.4245C38.9833 58.1713 38.3837 58.7957 37.654 59.2333C36.9243 59.6709 36.0911 59.9058 35.2403 59.9137L35.1967 59.9139Z" fill="#0C0C0C"/>
<path d="M37.1265 49.8312C37.1154 49.8312 37.1045 49.8282 37.0949 49.8226C37.0853 49.8169 37.0773 49.8089 37.0719 49.7992L35.0542 46.2288C35.0465 46.2143 35.0448 46.1974 35.0494 46.1817C35.054 46.166 35.0645 46.1527 35.0788 46.1446C35.0931 46.1366 35.1099 46.1344 35.1257 46.1385C35.1416 46.1427 35.1552 46.1529 35.1636 46.1669L37.1813 49.7373C37.1895 49.7518 37.1916 49.769 37.1872 49.7851C37.1827 49.8012 37.1721 49.8149 37.1575 49.8231C37.148 49.8284 37.1374 49.8312 37.1265 49.8312Z" fill="#0C0C0C"/>
<path d="M13.052 52.7646C13.0421 52.7646 13.0322 52.7623 13.0234 52.7578C13.0145 52.7533 13.0068 52.7467 13.001 52.7387C12.9952 52.7306 12.9914 52.7212 12.9899 52.7114C12.9885 52.7015 12.9894 52.6915 12.9926 52.6821L17.2726 40.3247C17.2753 40.3169 17.2795 40.3097 17.285 40.3036C17.2905 40.2974 17.2971 40.2924 17.3046 40.2888C17.312 40.2852 17.3201 40.2831 17.3283 40.2826C17.3366 40.2821 17.3448 40.2832 17.3526 40.286C17.3604 40.2887 17.3676 40.2929 17.3738 40.2984C17.38 40.3039 17.385 40.3105 17.3886 40.3179C17.3922 40.3254 17.3943 40.3334 17.3948 40.3417C17.3953 40.3499 17.3941 40.3582 17.3914 40.366L13.1114 52.7232C13.107 52.7353 13.0989 52.7459 13.0883 52.7533C13.0777 52.7607 13.065 52.7646 13.052 52.7646Z" fill="#0C0C0C"/>
<path d="M19.2498 49.9964C19.2339 49.9964 19.2187 49.9903 19.2071 49.9795C19.1955 49.9687 19.1884 49.9539 19.1872 49.9381L18.9396 46.549C18.9384 46.5324 18.9439 46.516 18.9548 46.5034C18.9657 46.4908 18.9811 46.483 18.9977 46.4818C19.0143 46.4809 19.0306 46.4864 19.0431 46.4972C19.0557 46.5081 19.0635 46.5234 19.0651 46.5399L19.3126 49.9289C19.3138 49.9455 19.3084 49.962 19.2974 49.9746C19.2865 49.9872 19.271 49.995 19.2544 49.9962L19.2498 49.9964Z" fill="#0C0C0C"/>
<path d="M136.42 147.833H10.5024C10.4855 147.833 10.4687 147.831 10.4529 147.825C10.4371 147.819 10.4227 147.809 10.4105 147.798C10.3984 147.786 10.3887 147.772 10.3821 147.756C10.3755 147.741 10.3721 147.724 10.3721 147.707C10.3721 147.69 10.3755 147.673 10.3821 147.658C10.3887 147.642 10.3984 147.628 10.4105 147.617C10.4227 147.605 10.4371 147.596 10.4529 147.59C10.4687 147.584 10.4855 147.581 10.5024 147.581H136.42C136.437 147.581 136.454 147.584 136.47 147.59C136.486 147.596 136.5 147.605 136.512 147.617C136.524 147.628 136.534 147.642 136.541 147.658C136.547 147.673 136.551 147.69 136.551 147.707C136.551 147.724 136.547 147.741 136.541 147.756C136.534 147.772 136.524 147.786 136.512 147.798C136.5 147.809 136.486 147.819 136.47 147.825C136.454 147.831 136.437 147.833 136.42 147.833Z" fill="#292A2E"/>
<path d="M103.256 10.2124H54.8494C50.8449 10.2124 47.5986 13.4587 47.5986 17.4631V131.256C47.5986 135.261 50.8449 138.507 54.8494 138.507H103.256C107.261 138.507 110.507 135.261 110.507 131.256V17.4631C110.507 13.4587 107.261 10.2124 103.256 10.2124Z" fill="#292A2E"/>
<path d="M103.234 12.4766H54.8724C52.1227 12.4766 49.8936 14.7057 49.8936 17.4554V131.095C49.8936 133.845 52.1227 136.074 54.8724 136.074H103.234C105.983 136.074 108.212 133.845 108.212 131.095V17.4554C108.212 14.7057 105.983 12.4766 103.234 12.4766Z" fill="white"/>
<path d="M67.1084 11.5405H90.9971V14.0123C90.9971 14.3634 90.9279 14.7111 90.7935 15.0354C90.6591 15.3598 90.4621 15.6545 90.2138 15.9027C89.9655 16.1509 89.6707 16.3478 89.3463 16.4821C89.0219 16.6163 88.6742 16.6854 88.3231 16.6853H69.7814C69.0725 16.6853 68.3926 16.4036 67.8913 15.9024C67.39 15.4011 67.1084 14.7212 67.1084 14.0123V11.5405Z" fill="#292A2E"/>
<mask id="path-70-inside-1_2_4733" fill="white">
<path d="M93.1646 27.3159H55.9412C55.9104 27.3159 55.8809 27.2632 55.8592 27.1695C55.8374 27.0757 55.8252 26.9485 55.8252 26.8159C55.8252 26.6833 55.8374 26.5561 55.8592 26.4624C55.8809 26.3686 55.9104 26.3159 55.9412 26.3159H93.1646C93.1954 26.3159 93.2249 26.3686 93.2466 26.4624C93.2684 26.5561 93.2806 26.6833 93.2806 26.8159C93.2806 26.9485 93.2684 27.0757 93.2466 27.1695C93.2249 27.2632 93.1954 27.3159 93.1646 27.3159Z"/>
</mask>
<path d="M93.1646 27.3159H55.9412C55.9104 27.3159 55.8809 27.2632 55.8592 27.1695C55.8374 27.0757 55.8252 26.9485 55.8252 26.8159C55.8252 26.6833 55.8374 26.5561 55.8592 26.4624C55.8809 26.3686 55.9104 26.3159 55.9412 26.3159H93.1646C93.1954 26.3159 93.2249 26.3686 93.2466 26.4624C93.2684 26.5561 93.2806 26.6833 93.2806 26.8159C93.2806 26.9485 93.2684 27.0757 93.2466 27.1695C93.2249 27.2632 93.1954 27.3159 93.1646 27.3159Z" fill="#080808"/>
<path d="M55.8252 26.8159H45.8252H55.8252ZM93.1646 26.3159V16.3159V26.3159ZM93.2806 26.8159H83.2806H93.2806ZM93.1646 17.3159H55.9412V37.3159H93.1646V17.3159ZM55.9412 17.3159C58.9785 17.3159 61.1996 18.6563 62.447 19.7314C63.6318 20.7525 64.2998 21.8167 64.6222 22.3925C65.2683 23.5464 65.5159 24.5448 65.6006 24.9104L46.1177 29.4286C46.2242 29.888 46.4974 30.9596 47.1713 32.1632C47.3825 32.5404 49.9528 37.3159 55.9412 37.3159V17.3159ZM65.6006 24.9104C65.713 25.3949 65.7632 25.7913 65.7882 26.0509C65.8149 26.329 65.8252 26.584 65.8252 26.8159H45.8252C45.8252 27.4459 45.8735 28.3755 46.1177 29.4286L65.6006 24.9104ZM65.8252 26.8159C65.8252 27.0478 65.8149 27.3028 65.7882 27.5809C65.7632 27.8405 65.713 28.2369 65.6006 28.7215L46.1177 24.2032C45.8735 25.2563 45.8252 26.1859 45.8252 26.8159H65.8252ZM65.6006 28.7215C65.5159 29.0871 65.2683 30.0855 64.6222 31.2393C64.2998 31.8151 63.6318 32.8793 62.447 33.9004C61.1996 34.9756 58.9785 36.3159 55.9412 36.3159V16.3159C49.9528 16.3159 47.3825 21.0914 47.1713 21.4686C46.4974 22.6723 46.2242 23.7439 46.1177 24.2032L65.6006 28.7215ZM55.9412 36.3159H93.1646V16.3159H55.9412V36.3159ZM93.1646 36.3159C90.1272 36.3159 87.9061 34.9755 86.6585 33.9002C85.4738 32.879 84.8057 31.8147 84.4834 31.239C83.8374 30.0852 83.5899 29.0869 83.5051 28.7215L102.988 24.2032C102.882 23.7441 102.608 22.6726 101.935 21.469C101.724 21.0919 99.1532 16.3159 93.1646 16.3159V36.3159ZM83.5051 28.7215C83.3927 28.2368 83.3425 27.8403 83.3176 27.5807C83.2908 27.3026 83.2806 27.0477 83.2806 26.8159H103.281C103.281 26.1863 103.232 25.2566 102.988 24.2032L83.5051 28.7215ZM83.2806 26.8159C83.2806 26.5841 83.2908 26.3292 83.3176 26.0511C83.3425 25.7915 83.3927 25.3951 83.5051 24.9104L102.988 29.4286C103.232 28.3753 103.281 27.4456 103.281 26.8159H83.2806ZM83.5051 24.9104C83.5899 24.545 83.8374 23.5467 84.4834 22.3929C84.8057 21.8171 85.4738 20.7528 86.6585 19.7316C87.9061 18.6563 90.1272 17.3159 93.1646 17.3159V37.3159C99.1532 37.3159 101.724 32.54 101.935 32.1629C102.608 30.9593 102.882 29.8878 102.988 29.4286L83.5051 24.9104Z" fill="black" mask="url(#path-70-inside-1_2_4733)"/>
<path d="M93.2462 30.6498L93.2466 30.6499L93.2462 30.6498Z" fill="#080808" stroke="black" stroke-width="10"/>
<mask id="path-73-inside-2_2_4733" fill="white">
<path d="M93.1647 34.2749H55.9412C55.9105 34.2749 55.8809 34.2222 55.8592 34.1285C55.8374 34.0347 55.8252 33.9075 55.8252 33.7749C55.8252 33.6423 55.8374 33.5151 55.8592 33.4214C55.8809 33.3276 55.9105 33.2749 55.9412 33.2749H93.1647C93.1955 33.2749 93.225 33.3276 93.2467 33.4214C93.2685 33.5151 93.2807 33.6423 93.2807 33.7749C93.2807 33.9075 93.2685 34.0347 93.2467 34.1285C93.225 34.2222 93.1955 34.2749 93.1647 34.2749Z"/>
</mask>
<path d="M93.1647 34.2749H55.9412C55.9105 34.2749 55.8809 34.2222 55.8592 34.1285C55.8374 34.0347 55.8252 33.9075 55.8252 33.7749C55.8252 33.6423 55.8374 33.5151 55.8592 33.4214C55.8809 33.3276 55.9105 33.2749 55.9412 33.2749H93.1647C93.1955 33.2749 93.225 33.3276 93.2467 33.4214C93.2685 33.5151 93.2807 33.6423 93.2807 33.7749C93.2807 33.9075 93.2685 34.0347 93.2467 34.1285C93.225 34.2222 93.1955 34.2749 93.1647 34.2749Z" fill="#080808"/>
<path d="M55.8252 33.7749H45.8252H55.8252ZM93.2807 33.7749H83.2807H93.2807ZM93.1647 24.2749H55.9412V44.2749H93.1647V24.2749ZM55.9412 24.2749C58.9765 24.2749 61.1967 25.6135 62.4446 26.6882C63.6296 27.7089 64.2981 28.7728 64.6208 29.3489C65.2675 30.503 65.5154 31.5018 65.6003 31.8678L46.1181 36.3891C46.2248 36.8489 46.4983 37.9209 47.1729 39.1248C47.3855 39.5043 49.9563 44.2749 55.9412 44.2749V24.2749ZM65.6003 31.8678C65.7129 32.3528 65.7632 32.7495 65.7881 33.0094C65.8149 33.2877 65.8252 33.5429 65.8252 33.7749H45.8252C45.8252 34.405 45.8735 35.3352 46.1181 36.3891L65.6003 31.8678ZM65.8252 33.7749C65.8252 34.0069 65.8149 34.2621 65.7881 34.5405C65.7632 34.8004 65.7128 35.1971 65.6003 35.682L46.1181 31.1607C45.8735 32.2145 45.8252 33.1447 45.8252 33.7749H65.8252ZM65.6003 35.682C65.5154 36.0479 65.2675 37.0466 64.621 38.2005C64.2984 38.7765 63.63 39.8404 62.4451 40.8611C61.1975 41.9358 58.9771 43.2749 55.9412 43.2749V23.2749C49.9555 23.2749 47.3848 28.0467 47.1726 28.4254C46.4982 29.6292 46.2247 30.701 46.1181 31.1607L65.6003 35.682ZM55.9412 43.2749H93.1647V23.2749H55.9412V43.2749ZM93.1647 43.2749C90.1287 43.2749 87.9082 41.9357 86.6606 40.8609C85.4757 39.8401 84.8073 38.7761 84.4847 38.2002C83.8383 37.0463 83.5905 36.0477 83.5056 35.682L102.988 31.1607C102.881 30.7012 102.608 29.6294 101.933 28.4257C101.721 28.0471 99.1508 23.2749 93.1647 23.2749V43.2749ZM83.5056 35.682C83.3931 35.1972 83.3428 34.8006 83.3178 34.5407C83.291 34.2623 83.2807 34.0071 83.2807 33.7749H103.281C103.281 33.1444 103.232 32.2143 102.988 31.1607L83.5056 35.682ZM83.2807 33.7749C83.2807 33.5427 83.291 33.2875 83.3178 33.0092C83.3428 32.7493 83.3931 32.3527 83.5056 31.8678L102.988 36.3891C103.232 35.3355 103.281 34.4053 103.281 33.7749H83.2807ZM83.5056 31.8678C83.5905 31.502 83.8384 30.5033 84.4849 29.3492C84.8076 28.7732 85.4761 27.7092 86.6611 26.6884C87.9091 25.6135 90.1293 24.2749 93.1647 24.2749V44.2749C99.15 44.2749 101.721 39.5039 101.933 39.1245C102.608 37.9206 102.881 36.8487 102.988 36.3891L83.5056 31.8678Z" fill="black" mask="url(#path-73-inside-2_2_4733)"/>
<mask id="path-75-inside-3_2_4733" fill="white">
<path d="M74.6035 37.7554H55.9412C55.9105 37.7554 55.8809 37.7027 55.8592 37.6089C55.8374 37.5152 55.8252 37.388 55.8252 37.2554C55.8252 37.1228 55.8374 36.9956 55.8592 36.9018C55.8809 36.808 55.9105 36.7554 55.9412 36.7554H74.6035C74.6342 36.7554 74.6638 36.808 74.6855 36.9018C74.7073 36.9956 74.7195 37.1228 74.7195 37.2554C74.7195 37.388 74.7073 37.5152 74.6855 37.6089C74.6638 37.7027 74.6342 37.7554 74.6035 37.7554Z"/>
</mask>
<path d="M74.6035 37.7554H55.9412C55.9105 37.7554 55.8809 37.7027 55.8592 37.6089C55.8374 37.5152 55.8252 37.388 55.8252 37.2554C55.8252 37.1228 55.8374 36.9956 55.8592 36.9018C55.8809 36.808 55.9105 36.7554 55.9412 36.7554H74.6035C74.6342 36.7554 74.6638 36.808 74.6855 36.9018C74.7073 36.9956 74.7195 37.1228 74.7195 37.2554C74.7195 37.388 74.7073 37.5152 74.6855 37.6089C74.6638 37.7027 74.6342 37.7554 74.6035 37.7554Z" fill="#080808"/>
<path d="M55.8252 37.2554H45.8252H55.8252ZM74.7195 37.2554H84.7195H74.7195ZM74.6035 27.7554H55.9412V47.7554H74.6035V27.7554ZM55.9412 27.7554C58.9765 27.7554 61.1967 29.0939 62.4446 30.1687C63.6296 31.1894 64.2981 32.2533 64.6208 32.8293C65.2675 33.9835 65.5154 34.9823 65.6003 35.3483L46.1181 39.8696C46.2248 40.3293 46.4983 41.4014 47.1729 42.6053C47.3855 42.9848 49.9563 47.7554 55.9412 47.7554V27.7554ZM65.6003 35.3483C65.7129 35.8333 65.7632 36.23 65.7881 36.4899C65.8149 36.7682 65.8252 37.0233 65.8252 37.2554H45.8252C45.8252 37.8855 45.8735 38.8157 46.1181 39.8696L65.6003 35.3483ZM65.8252 37.2554C65.8252 37.4874 65.8149 37.7425 65.7881 38.0209C65.7632 38.2807 65.7129 38.6775 65.6003 39.1625L46.1181 34.6412C45.8735 35.695 45.8252 36.6253 45.8252 37.2554H65.8252ZM65.6003 39.1625C65.5154 39.5285 65.2675 40.5273 64.6208 41.6814C64.2981 42.2574 63.6296 43.3214 62.4446 44.342C61.1967 45.4168 58.9765 46.7554 55.9412 46.7554V26.7554C49.9563 26.7554 47.3855 31.5259 47.1729 31.9055C46.4983 33.1094 46.2248 34.1814 46.1181 34.6412L65.6003 39.1625ZM55.9412 46.7554H74.6035V26.7554H55.9412V46.7554ZM74.6035 46.7554C71.5682 46.7554 69.348 45.4168 68.1002 44.342C66.9151 43.3214 66.2467 42.2574 65.9239 41.6814C65.2772 40.5273 65.0293 39.5285 64.9444 39.1625L84.4266 34.6412C84.32 34.1814 84.0464 33.1094 83.3719 31.9055C83.1592 31.5259 80.5884 26.7554 74.6035 26.7554V46.7554ZM64.9444 39.1625C64.8319 38.6775 64.7815 38.2807 64.7566 38.0209C64.7298 37.7425 64.7195 37.4874 64.7195 37.2554H84.7195C84.7195 36.6253 84.6712 35.695 84.4266 34.6412L64.9444 39.1625ZM64.7195 37.2554C64.7195 37.0233 64.7298 36.7682 64.7566 36.4899C64.7815 36.23 64.8319 35.8333 64.9444 35.3483L84.4266 39.8696C84.6712 38.8157 84.7195 37.8855 84.7195 37.2554H64.7195ZM64.9444 35.3483C65.0293 34.9823 65.2772 33.9835 65.9239 32.8293C66.2467 32.2533 66.9151 31.1894 68.1002 30.1687C69.348 29.0939 71.5682 27.7554 74.6035 27.7554V47.7554C80.5884 47.7554 83.1592 42.9848 83.3719 42.6053C84.0464 41.4014 84.32 40.3293 84.4266 39.8696L64.9444 35.3483Z" fill="black" mask="url(#path-75-inside-3_2_4733)"/>
<path d="M101.763 104.382L101.764 104.382L101.763 104.382Z" fill="white" stroke="#00FF00" stroke-width="10"/>
<mask id="path-78-inside-4_2_4733" fill="white">
<path d="M101.683 108.716H70.2596C70.2288 108.716 70.1993 108.664 70.1775 108.57C70.1558 108.476 70.1436 108.349 70.1436 108.216C70.1436 108.084 70.1558 107.957 70.1775 107.863C70.1993 107.769 70.2288 107.716 70.2596 107.716H101.683C101.713 107.716 101.743 107.769 101.765 107.863C101.787 107.957 101.799 108.084 101.799 108.216C101.799 108.349 101.787 108.476 101.765 108.57C101.743 108.664 101.713 108.716 101.683 108.716Z"/>
</mask>
<path d="M101.683 108.716H70.2596C70.2288 108.716 70.1993 108.664 70.1775 108.57C70.1558 108.476 70.1436 108.349 70.1436 108.216C70.1436 108.084 70.1558 107.957 70.1775 107.863C70.1993 107.769 70.2288 107.716 70.2596 107.716H101.683C101.713 107.716 101.743 107.769 101.765 107.863C101.787 107.957 101.799 108.084 101.799 108.216C101.799 108.349 101.787 108.476 101.765 108.57C101.743 108.664 101.713 108.716 101.683 108.716Z" fill="white"/>
<path d="M101.683 98.7163H70.2596V118.716H101.683V98.7163ZM70.2596 98.7163C73.2961 98.7163 75.5167 100.056 76.7641 101.131C77.9488 102.151 78.6171 103.215 78.9396 103.791C79.5859 104.945 79.8338 105.943 79.9187 106.309L60.4364 110.831C60.5431 111.29 60.8165 112.362 61.4908 113.565C61.7024 113.943 64.273 118.716 70.2596 118.716V98.7163ZM79.9187 106.309C80.0312 106.794 80.0815 107.191 80.1065 107.451C80.1333 107.729 80.1436 107.984 80.1436 108.216H60.1436C60.1436 108.847 60.1919 109.777 60.4364 110.831L79.9187 106.309ZM80.1436 108.216C80.1436 108.448 80.1333 108.704 80.1065 108.982C80.0815 109.242 80.0312 109.639 79.9187 110.123L60.4364 105.602C60.1919 106.656 60.1436 107.586 60.1436 108.216H80.1436ZM79.9187 110.123C79.8338 110.489 79.5859 111.488 78.9396 112.642C78.6171 113.217 77.9488 114.281 76.7641 115.302C75.5167 116.377 73.2961 117.716 70.2596 117.716V97.7163C64.273 97.7163 61.7024 102.489 61.4908 102.867C60.8165 104.071 60.5431 105.142 60.4364 105.602L79.9187 110.123ZM70.2596 117.716H101.683V97.7163H70.2596V117.716ZM101.683 117.716C98.6461 117.716 96.4255 116.377 95.178 115.302C93.9932 114.281 93.325 113.217 93.0025 112.641C92.3563 111.487 92.1085 110.489 92.0237 110.123L111.506 105.602C111.399 105.143 111.126 104.071 110.452 102.868C110.24 102.49 107.67 97.7163 101.683 97.7163V117.716ZM92.0237 110.123C91.9112 109.639 91.8608 109.242 91.8358 108.982C91.8091 108.704 91.7988 108.448 91.7988 108.216H111.799C111.799 107.586 111.75 106.656 111.506 105.602L92.0237 110.123ZM91.7988 108.216C91.7988 107.984 91.8091 107.729 91.8358 107.451C91.8608 107.191 91.9112 106.794 92.0237 106.309L111.506 110.831C111.75 109.777 111.799 108.847 111.799 108.216H91.7988ZM92.0237 106.309C92.1085 105.944 92.3563 104.945 93.0025 103.791C93.325 103.216 93.9932 102.152 95.178 101.131C96.4255 100.056 98.6461 98.7163 101.683 98.7163V118.716C107.67 118.716 110.24 113.943 110.452 113.565C111.126 112.362 111.399 111.29 111.506 110.831L92.0237 106.309Z" fill="#00FF00" mask="url(#path-78-inside-4_2_4733)"/>
<mask id="path-80-inside-5_2_4733" fill="white">
<path d="M101.684 112.197H83.0213C82.9905 112.197 82.961 112.144 82.9393 112.05C82.9175 111.957 82.9053 111.829 82.9053 111.697C82.9053 111.564 82.9175 111.437 82.9393 111.343C82.961 111.249 82.9905 111.197 83.0213 111.197H101.684C101.714 111.197 101.744 111.249 101.766 111.343C101.787 111.437 101.8 111.564 101.8 111.697C101.8 111.829 101.787 111.957 101.766 112.05C101.744 112.144 101.714 112.197 101.684 112.197Z"/>
</mask>
<path d="M101.684 112.197H83.0213C82.9905 112.197 82.961 112.144 82.9393 112.05C82.9175 111.957 82.9053 111.829 82.9053 111.697C82.9053 111.564 82.9175 111.437 82.9393 111.343C82.961 111.249 82.9905 111.197 83.0213 111.197H101.684C101.714 111.197 101.744 111.249 101.766 111.343C101.787 111.437 101.8 111.564 101.8 111.697C101.8 111.829 101.787 111.957 101.766 112.05C101.744 112.144 101.714 112.197 101.684 112.197Z" fill="white"/>
<path d="M83.0213 112.197V122.197V112.197ZM101.684 111.197V121.197V111.197ZM101.684 102.197H83.0213V122.197H101.684V102.197ZM83.0213 102.197C86.0554 102.197 88.2752 103.534 89.5234 104.609C90.7087 105.63 91.3775 106.694 91.7004 107.27C92.3474 108.424 92.5954 109.424 92.6804 109.79L73.1981 114.311C73.3049 114.771 73.5785 115.843 74.2534 117.048C74.467 117.429 77.038 122.197 83.0213 122.197V102.197ZM92.6804 109.79C92.793 110.275 92.8433 110.672 92.8682 110.931C92.895 111.21 92.9053 111.465 92.9053 111.697H72.9053C72.9053 112.327 72.9535 113.257 73.1981 114.311L92.6804 109.79ZM92.9053 111.697C92.9053 111.929 92.895 112.184 92.8682 112.462C92.8432 112.722 92.7929 113.119 92.6804 113.604L73.1981 109.083C72.9536 110.136 72.9053 111.067 72.9053 111.697H92.9053ZM92.6804 113.604C92.5955 113.97 92.3477 114.968 91.7013 116.122C91.3788 116.698 90.7105 117.762 89.5258 118.782C88.2784 119.857 86.0578 121.197 83.0213 121.197V101.197C77.0348 101.197 74.4641 105.97 74.2525 106.348C73.5783 107.551 73.3048 108.623 73.1981 109.083L92.6804 113.604ZM83.0213 121.197H101.684V101.197H83.0213V121.197ZM101.684 121.197C98.647 121.197 96.4263 119.857 95.1788 118.782C93.9941 117.761 93.3258 116.697 93.0033 116.122C92.3571 114.968 92.1093 113.97 92.0245 113.604L111.507 109.083C111.4 108.623 111.127 107.552 110.453 106.348C110.241 105.97 107.67 101.197 101.684 101.197V121.197ZM92.0245 113.604C91.912 113.119 91.8617 112.723 91.8367 112.463C91.8099 112.184 91.7996 111.929 91.7996 111.697H111.8C111.8 111.066 111.751 110.136 111.507 109.083L92.0245 113.604ZM91.7996 111.697C91.7996 111.465 91.8099 111.209 91.8367 110.931C91.8616 110.671 91.9119 110.275 92.0245 109.79L111.507 114.311C111.751 113.257 111.8 112.327 111.8 111.697H91.7996ZM92.0245 109.79C92.1094 109.424 92.3574 108.425 93.0042 107.27C93.3272 106.694 93.9959 105.63 95.1812 104.609C96.4295 103.534 98.6494 102.197 101.684 102.197V122.197C107.667 122.197 110.238 117.428 110.452 117.047C111.126 115.843 111.4 114.771 111.507 114.311L92.0245 109.79Z" fill="#00FF00" mask="url(#path-80-inside-5_2_4733)"/>
<mask id="path-82-inside-6_2_4733" fill="white">
<path d="M101.682 57.5132H70.2591C70.2284 57.5132 70.1991 57.4605 70.1774 57.3667C70.1557 57.273 70.1436 57.1458 70.1436 57.0132C70.1436 56.8806 70.1557 56.7534 70.1774 56.6596C70.1991 56.5659 70.2284 56.5132 70.2591 56.5132H101.682C101.697 56.5132 101.712 56.5261 101.726 56.5512C101.74 56.5764 101.753 56.6132 101.764 56.6596C101.775 56.7061 101.783 56.7612 101.789 56.8218C101.795 56.8825 101.798 56.9475 101.798 57.0132C101.798 57.0789 101.795 57.1439 101.789 57.2045C101.783 57.2652 101.775 57.3203 101.764 57.3667C101.753 57.4132 101.74 57.45 101.726 57.4751C101.712 57.5003 101.697 57.5132 101.682 57.5132Z"/>
</mask>
<path d="M101.682 57.5132H70.2591C70.2284 57.5132 70.1991 57.4605 70.1774 57.3667C70.1557 57.273 70.1436 57.1458 70.1436 57.0132C70.1436 56.8806 70.1557 56.7534 70.1774 56.6596C70.1991 56.5659 70.2284 56.5132 70.2591 56.5132H101.682C101.697 56.5132 101.712 56.5261 101.726 56.5512C101.74 56.5764 101.753 56.6132 101.764 56.6596C101.775 56.7061 101.783 56.7612 101.789 56.8218C101.795 56.8825 101.798 56.9475 101.798 57.0132C101.798 57.0789 101.795 57.1439 101.789 57.2045C101.783 57.2652 101.775 57.3203 101.764 57.3667C101.753 57.4132 101.74 57.45 101.726 57.4751C101.712 57.5003 101.697 57.5132 101.682 57.5132Z" fill="#FF0000"/>
<path d="M101.682 57.5132L101.682 47.5132H101.682V57.5132ZM70.2591 57.5132L70.2591 67.5132H70.2591V57.5132ZM70.2591 56.5132V46.5132H70.2591L70.2591 56.5132ZM101.682 56.5132V66.5132H101.682L101.682 56.5132ZM101.798 57.0132H91.7978H101.798ZM101.682 47.5132H70.2591V67.5132H101.682V47.5132ZM70.2591 47.5132C73.308 47.5132 75.5333 48.8633 76.7784 49.9403C77.9614 50.9635 78.6273 52.0286 78.9478 52.6031C79.5905 53.7552 79.8366 54.7514 79.9206 55.1153L60.4341 59.6182C60.5399 60.0759 60.8115 61.1453 61.482 62.3472C61.6851 62.7113 64.2531 67.5132 70.2591 67.5132L70.2591 47.5132ZM79.9206 55.1153C80.0323 55.5983 80.0821 55.9932 80.1069 56.2517C80.1334 56.5287 80.1436 56.7825 80.1436 57.0132H60.1436C60.1436 57.6411 60.1915 58.568 60.4341 59.6182L79.9206 55.1153ZM80.1436 57.0132C80.1436 57.2439 80.1334 57.4977 80.1069 57.7745C80.0821 58.033 80.0323 58.428 79.9206 58.9111L60.4341 54.4081C60.1914 55.4585 60.1436 56.3855 60.1436 57.0132H80.1436ZM79.9206 58.9111C79.8366 59.275 79.5905 60.2711 78.9478 61.4233C78.6273 61.9978 77.9614 63.0629 76.7784 64.0861C75.5333 65.1631 73.308 66.5132 70.2591 66.5132L70.2591 46.5132C64.2531 46.5132 61.6851 51.3151 61.482 51.6792C60.8115 52.8811 60.5399 53.9505 60.4341 54.4081L79.9206 58.9111ZM70.2591 66.5132H101.682V46.5132H70.2591V66.5132ZM101.682 66.5132C98.6577 66.5132 96.438 65.1837 95.1811 64.1018C93.9895 63.0762 93.3183 62.0054 92.9935 61.4232L110.459 51.6793C110.233 51.2727 107.663 46.5132 101.682 46.5132L101.682 66.5132ZM92.9935 61.4232C92.6361 60.7826 92.42 60.2255 92.2954 59.8652C92.1636 59.484 92.0773 59.1561 92.0207 58.9111L111.507 54.4081C111.404 53.9624 111.133 52.8876 110.459 51.6793L92.9935 61.4232ZM92.0207 58.9111C91.9097 58.4309 91.8596 58.0368 91.8345 57.7747L111.743 55.869C111.707 55.4856 111.64 54.9813 111.507 54.4081L92.0207 58.9111ZM91.8345 57.7747C91.8077 57.4954 91.7978 57.2414 91.7978 57.0132H111.798C111.798 56.6536 111.782 56.2696 111.743 55.869L91.8345 57.7747ZM91.7978 57.0132C91.7978 56.7849 91.8077 56.531 91.8345 56.2517L111.743 58.1574C111.782 57.7567 111.798 57.3728 111.798 57.0132H91.7978ZM91.8345 56.2517C91.8596 55.9891 91.9098 55.5952 92.0207 55.1153L111.507 59.6182C111.64 59.0455 111.707 58.5413 111.743 58.1574L91.8345 56.2517ZM92.0207 55.1153C92.0773 54.8703 92.1636 54.5423 92.2954 54.1611C92.42 53.8008 92.6361 53.2438 92.9935 52.6032L110.459 62.3471C111.133 61.1388 111.404 60.064 111.507 59.6182L92.0207 55.1153ZM92.9935 52.6032C93.3183 52.021 93.9895 50.9502 95.1811 49.9245C96.438 48.8426 98.6577 47.5132 101.682 47.5132L101.682 67.5132C107.663 67.5132 110.233 62.7537 110.459 62.3471L92.9935 52.6032Z" fill="#FF2800" mask="url(#path-82-inside-6_2_4733)"/>
<mask id="path-84-inside-7_2_4733" fill="white">
<path d="M101.682 54.2124H70.2591C70.2284 54.2124 70.1991 54.1597 70.1774 54.066C70.1557 53.9722 70.1436 53.845 70.1436 53.7124C70.1436 53.5798 70.1557 53.4526 70.1774 53.3588C70.1991 53.2651 70.2284 53.2124 70.2591 53.2124H101.682C101.713 53.2124 101.742 53.2651 101.764 53.3588C101.786 53.4526 101.798 53.5798 101.798 53.7124C101.798 53.845 101.786 53.9722 101.764 54.066C101.742 54.1597 101.713 54.2124 101.682 54.2124Z"/>
</mask>
<path d="M101.682 54.2124H70.2591C70.2284 54.2124 70.1991 54.1597 70.1774 54.066C70.1557 53.9722 70.1436 53.845 70.1436 53.7124C70.1436 53.5798 70.1557 53.4526 70.1774 53.3588C70.1991 53.2651 70.2284 53.2124 70.2591 53.2124H101.682C101.713 53.2124 101.742 53.2651 101.764 53.3588C101.786 53.4526 101.798 53.5798 101.798 53.7124C101.798 53.845 101.786 53.9722 101.764 54.066C101.742 54.1597 101.713 54.2124 101.682 54.2124Z" fill="#FF0000"/>
<path d="M101.682 44.2124H70.2591V64.2124H101.682V44.2124ZM70.2591 44.2124C73.308 44.2124 75.5333 45.5625 76.7784 46.6395C77.9614 47.6627 78.6273 48.7278 78.9478 49.3023C79.5905 50.4544 79.8366 51.4506 79.9206 51.8145L60.4342 56.3174C60.5399 56.7751 60.8115 57.8445 61.482 59.0464C61.6851 59.4105 64.2531 64.2124 70.2591 64.2124V44.2124ZM79.9206 51.8145C80.0323 52.2975 80.0821 52.6924 80.1069 52.951C80.1334 53.2279 80.1436 53.4817 80.1436 53.7124H60.1436C60.1436 54.3403 60.1915 55.2672 60.4342 56.3174L79.9206 51.8145ZM80.1436 53.7124C80.1436 53.9431 80.1334 54.1969 80.1069 54.4738C80.0821 54.7322 80.0323 55.1272 79.9206 55.6103L60.4342 51.1074C60.1914 52.1577 60.1436 53.0847 60.1436 53.7124H80.1436ZM79.9206 55.6103C79.8366 55.9742 79.5905 56.9704 78.9478 58.1225C78.6273 58.697 77.9614 59.7621 76.7784 60.7853C75.5333 61.8623 73.308 63.2124 70.2591 63.2124V43.2124C64.2531 43.2124 61.6851 48.0143 61.482 48.3784C60.8115 49.5803 60.5399 50.6497 60.4342 51.1074L79.9206 55.6103ZM70.2591 63.2124H101.682V43.2124H70.2591V63.2124ZM101.682 63.2124C98.6333 63.2124 96.4078 61.8623 95.1627 60.7851C93.9797 59.7618 93.3138 58.6966 92.9934 58.1222C92.3507 56.9701 92.1047 55.974 92.0207 55.6103L111.507 51.1074C111.401 50.6499 111.13 49.5806 110.46 48.3788C110.256 48.0147 107.689 43.2124 101.682 43.2124V63.2124ZM92.0207 55.6103C91.909 55.1272 91.8592 54.7322 91.8344 54.4738C91.8079 54.1969 91.7978 53.9431 91.7978 53.7124H111.798C111.798 53.0847 111.75 52.1577 111.507 51.1074L92.0207 55.6103ZM91.7978 53.7124C91.7978 53.4817 91.808 53.2279 91.8345 52.951C91.8592 52.6924 91.9091 52.2975 92.0207 51.8145L111.507 56.3174C111.75 55.2672 111.798 54.3403 111.798 53.7124H91.7978ZM92.0207 51.8145C92.1047 51.4508 92.3507 50.4547 92.9934 49.3026C93.3138 48.7282 93.9797 47.663 95.1627 46.6397C96.4078 45.5626 98.6333 44.2124 101.682 44.2124V64.2124C107.689 64.2124 110.256 59.4101 110.46 59.0461C111.13 57.8442 111.401 56.7749 111.507 56.3174L92.0207 51.8145Z" fill="#FF2800" mask="url(#path-84-inside-7_2_4733)"/>
<mask id="path-86-inside-8_2_4733" fill="white">
<path d="M101.683 60.9937H70.2596C70.2288 60.9937 70.1993 60.941 70.1775 60.8472C70.1558 60.7534 70.1436 60.6263 70.1436 60.4937C70.1436 60.361 70.1558 60.2339 70.1775 60.1401C70.1993 60.0463 70.2288 59.9937 70.2596 59.9937H101.683C101.713 59.9937 101.743 60.0463 101.765 60.1401C101.787 60.2339 101.799 60.361 101.799 60.4937C101.799 60.6263 101.787 60.7534 101.765 60.8472C101.743 60.941 101.713 60.9937 101.683 60.9937Z"/>
</mask>
<path d="M101.683 60.9937H70.2596C70.2288 60.9937 70.1993 60.941 70.1775 60.8472C70.1558 60.7534 70.1436 60.6263 70.1436 60.4937C70.1436 60.361 70.1558 60.2339 70.1775 60.1401C70.1993 60.0463 70.2288 59.9937 70.2596 59.9937H101.683C101.713 59.9937 101.743 60.0463 101.765 60.1401C101.787 60.2339 101.799 60.361 101.799 60.4937C101.799 60.6263 101.787 60.7534 101.765 60.8472C101.743 60.941 101.713 60.9937 101.683 60.9937Z" fill="#FF0000"/>
<path d="M101.683 60.9937V70.9937V60.9937ZM70.1436 60.4937H60.1436H70.1436ZM70.2596 59.9937V49.9937V59.9937ZM101.683 59.9937V49.9937V59.9937ZM101.799 60.4937H91.7988H101.799ZM101.683 50.9937H70.2596V70.9937H101.683V50.9937ZM70.2596 50.9937C73.2949 50.9937 75.5151 52.3322 76.7629 53.407C77.9479 54.4276 78.6164 55.4916 78.9392 56.0676C79.5858 57.2218 79.8337 58.2206 79.9187 58.5865L60.4364 63.1079C60.5431 63.5676 60.8167 64.6396 61.4912 65.8436C61.7039 66.2231 64.2746 70.9937 70.2596 70.9937V50.9937ZM79.9187 58.5865C80.0312 59.0715 80.0815 59.4683 80.1065 59.7281C80.1333 60.0065 80.1436 60.2616 80.1436 60.4937H60.1436C60.1436 61.1238 60.1918 62.054 60.4364 63.1079L79.9187 58.5865ZM80.1436 60.4937C80.1436 60.7257 80.1333 60.9808 80.1065 61.2592C80.0815 61.519 80.0312 61.9158 79.9187 62.4008L60.4364 57.8794C60.1918 58.9333 60.1436 59.8635 60.1436 60.4937H80.1436ZM79.9187 62.4008C79.8337 62.7667 79.5858 63.7655 78.9392 64.9197C78.6164 65.4957 77.9479 66.5597 76.7629 67.5803C75.5151 68.6551 73.2949 69.9937 70.2596 69.9937V49.9937C64.2746 49.9937 61.7039 54.7642 61.4912 55.1437C60.8167 56.3477 60.5431 57.4197 60.4364 57.8794L79.9187 62.4008ZM70.2596 69.9937H101.683V49.9937H70.2596V69.9937ZM101.683 69.9937C98.6474 69.9937 96.4271 68.655 95.1792 67.5801C93.9941 66.5594 93.3257 65.4954 93.003 64.9193C92.3564 63.7653 92.1085 62.7665 92.0237 62.4008L111.506 57.8794C111.399 57.4199 111.126 56.3479 110.451 55.1441C110.239 54.7647 107.668 49.9937 101.683 49.9937V69.9937ZM92.0237 62.4008C91.9111 61.9159 91.8608 61.5192 91.8358 61.2594C91.8091 60.981 91.7988 60.7258 91.7988 60.4937H111.799C111.799 59.8632 111.75 58.9331 111.506 57.8794L92.0237 62.4008ZM91.7988 60.4937C91.7988 60.2615 91.8091 60.0063 91.8358 59.7279C91.8608 59.4681 91.9111 59.0714 92.0237 58.5865L111.506 63.1079C111.75 62.0542 111.799 61.1241 111.799 60.4937H91.7988ZM92.0237 58.5865C92.1085 58.2208 92.3564 57.222 93.003 56.068C93.3257 55.492 93.9941 54.4279 95.1792 53.4072C96.4271 52.3323 98.6474 50.9937 101.683 50.9937V70.9937C107.668 70.9937 110.239 66.2227 110.451 65.8432C111.126 64.6394 111.399 63.5674 111.506 63.1079L92.0237 58.5865Z" fill="#FF2800" mask="url(#path-86-inside-8_2_4733)"/>
<mask id="path-88-inside-9_2_4733" fill="white">
<path d="M101.684 64.4741H83.0213C82.9905 64.4741 82.961 64.4214 82.9393 64.3277C82.9175 64.2339 82.9053 64.1067 82.9053 63.9741C82.9053 63.8415 82.9175 63.7143 82.9393 63.6206C82.961 63.5268 82.9905 63.4741 83.0213 63.4741H101.684C101.714 63.4741 101.744 63.5268 101.766 63.6206C101.787 63.7143 101.8 63.8415 101.8 63.9741C101.8 64.1067 101.787 64.2339 101.766 64.3277C101.744 64.4214 101.714 64.4741 101.684 64.4741Z"/>
</mask>
<path d="M101.684 64.4741H83.0213C82.9905 64.4741 82.961 64.4214 82.9393 64.3277C82.9175 64.2339 82.9053 64.1067 82.9053 63.9741C82.9053 63.8415 82.9175 63.7143 82.9393 63.6206C82.961 63.5268 82.9905 63.4741 83.0213 63.4741H101.684C101.714 63.4741 101.744 63.5268 101.766 63.6206C101.787 63.7143 101.8 63.8415 101.8 63.9741C101.8 64.1067 101.787 64.2339 101.766 64.3277C101.744 64.4214 101.714 64.4741 101.684 64.4741Z" fill="#FF0000"/>
<path d="M101.684 64.4741V74.4741V64.4741ZM83.0213 64.4741V74.4741V64.4741ZM82.9053 63.9741H72.9053H82.9053ZM83.0213 63.4741V53.4741V63.4741ZM101.8 63.9741H91.7996H101.8ZM101.684 54.4741H83.0213V74.4741H101.684V54.4741ZM83.0213 54.4741C86.0566 54.4741 88.2768 55.8127 89.5246 56.8875C90.7096 57.9081 91.3781 58.9721 91.7009 59.5481C92.3475 60.7022 92.5954 61.701 92.6804 62.067L73.1981 66.5883C73.3048 67.0481 73.5784 68.1201 74.2529 69.324C74.4656 69.7036 77.0364 74.4741 83.0213 74.4741V54.4741ZM92.6804 62.067C92.7929 62.552 92.8432 62.9488 92.8682 63.2086C92.895 63.487 92.9053 63.7421 92.9053 63.9741H72.9053C72.9053 64.6042 72.9536 65.5344 73.1981 66.5883L92.6804 62.067ZM92.9053 63.9741C92.9053 64.2061 92.895 64.4613 92.8682 64.7396C92.8432 64.9995 92.7929 65.3962 92.6804 65.8812L73.1981 61.3599C72.9536 62.4138 72.9053 63.344 72.9053 63.9741H92.9053ZM92.6804 65.8812C92.5954 66.2472 92.3475 67.246 91.7009 68.4002C91.3781 68.9762 90.7096 70.0401 89.5246 71.0608C88.2768 72.1355 86.0566 73.4741 83.0213 73.4741V53.4741C77.0364 53.4741 74.4656 58.2447 74.2529 58.6242C73.5784 59.8281 73.3048 60.9002 73.1981 61.3599L92.6804 65.8812ZM83.0213 73.4741H101.684V53.4741H83.0213V73.4741ZM101.684 73.4741C98.6482 73.4741 96.4279 72.1355 95.18 71.0606C93.995 70.0398 93.3265 68.9758 93.0038 68.3998C92.3572 67.2457 92.1094 66.247 92.0245 65.8812L111.507 61.3599C111.4 60.9004 111.127 59.8284 110.452 58.6245C110.24 58.2451 107.669 53.4741 101.684 53.4741V73.4741ZM92.0245 65.8812C91.912 65.3964 91.8616 64.9997 91.8367 64.7398C91.8099 64.4615 91.7996 64.2063 91.7996 63.9741H111.8C111.8 63.3437 111.751 62.4136 111.507 61.3599L92.0245 65.8812ZM91.7996 63.9741C91.7996 63.742 91.8099 63.4868 91.8367 63.2084C91.8616 62.9485 91.912 62.5519 92.0245 62.067L111.507 66.5883C111.751 65.5347 111.8 64.6045 111.8 63.9741H91.7996ZM92.0245 62.067C92.1094 61.7012 92.3572 60.7025 93.0038 59.5484C93.3265 58.9724 93.995 57.9084 95.18 56.8877C96.4279 55.8128 98.6482 54.4741 101.684 54.4741V74.4741C107.669 74.4741 110.24 69.7031 110.452 69.3237C111.127 68.1198 111.4 67.0479 111.507 66.5883L92.0245 62.067Z" fill="#FF2800" mask="url(#path-88-inside-9_2_4733)"/>
<mask id="path-90-inside-10_2_4733" fill="white">
<path d="M93.1647 81.5405H55.9412C55.9105 81.5405 55.8809 81.4879 55.8592 81.3941C55.8374 81.3003 55.8252 81.1731 55.8252 81.0405C55.8252 80.9079 55.8374 80.7807 55.8592 80.687C55.8809 80.5932 55.9105 80.5405 55.9412 80.5405H93.1647C93.1955 80.5405 93.225 80.5932 93.2467 80.687C93.2685 80.7807 93.2807 80.9079 93.2807 81.0405C93.2807 81.1731 93.2685 81.3003 93.2467 81.3941C93.225 81.4879 93.1955 81.5405 93.1647 81.5405Z"/>
</mask>
<path d="M93.1647 81.5405H55.9412C55.9105 81.5405 55.8809 81.4879 55.8592 81.3941C55.8374 81.3003 55.8252 81.1731 55.8252 81.0405C55.8252 80.9079 55.8374 80.7807 55.8592 80.687C55.8809 80.5932 55.9105 80.5405 55.9412 80.5405H93.1647C93.1955 80.5405 93.225 80.5932 93.2467 80.687C93.2685 80.7807 93.2807 80.9079 93.2807 81.0405C93.2807 81.1731 93.2685 81.3003 93.2467 81.3941C93.225 81.4879 93.1955 81.5405 93.1647 81.5405Z" fill="white"/>
<path d="M93.1647 81.5405V91.5405V81.5405ZM55.9412 81.5405V91.5405V81.5405ZM55.8252 81.0405H45.8252H55.8252ZM55.9412 80.5405V70.5405V80.5405ZM93.2807 81.0405H83.2807H93.2807ZM93.1647 71.5405H55.9412V91.5405H93.1647V71.5405ZM55.9412 71.5405C58.9765 71.5405 61.1967 72.8791 62.4446 73.9539C63.6296 74.9745 64.2981 76.0385 64.6208 76.6145C65.2675 77.7686 65.5154 78.7674 65.6003 79.1334L46.1181 83.6547C46.2248 84.1145 46.4983 85.1865 47.1729 86.3904C47.3855 86.77 49.9563 91.5405 55.9412 91.5405V71.5405ZM65.6003 79.1334C65.7129 79.6184 65.7632 80.0152 65.7881 80.275C65.8149 80.5534 65.8252 80.8085 65.8252 81.0405H45.8252C45.8252 81.6706 45.8735 82.6009 46.1181 83.6547L65.6003 79.1334ZM65.8252 81.0405C65.8252 81.2726 65.8149 81.5277 65.7881 81.806C65.7632 82.0659 65.7129 82.4626 65.6003 82.9476L46.1181 78.4263C45.8735 79.4802 45.8252 80.4104 45.8252 81.0405H65.8252ZM65.6003 82.9476C65.5154 83.3136 65.2675 84.3124 64.6208 85.4666C64.2981 86.0426 63.6296 87.1065 62.4446 88.1272C61.1967 89.202 58.9765 90.5405 55.9412 90.5405V70.5405C49.9563 70.5405 47.3855 75.3111 47.1729 75.6906C46.4983 76.8945 46.2248 77.9666 46.1181 78.4263L65.6003 82.9476ZM55.9412 90.5405H93.1647V70.5405H55.9412V90.5405ZM93.1647 90.5405C90.1293 90.5405 87.9091 89.2019 86.6611 88.127C85.4761 87.1062 84.8076 86.0422 84.4849 85.4662C83.8384 84.3121 83.5905 83.3134 83.5056 82.9476L102.988 78.4263C102.881 77.9668 102.608 76.8948 101.933 75.691C101.721 75.3115 99.15 70.5405 93.1647 70.5405V90.5405ZM83.5056 82.9476C83.3931 82.4628 83.3428 82.0661 83.3178 81.8062C83.291 81.5279 83.2807 81.2727 83.2807 81.0405H103.281C103.281 80.4101 103.232 79.48 102.988 78.4263L83.5056 82.9476ZM83.2807 81.0405C83.2807 80.8084 83.291 80.5532 83.3178 80.2748C83.3428 80.0149 83.3931 79.6183 83.5056 79.1334L102.988 83.6547C103.232 82.6011 103.281 81.671 103.281 81.0405H83.2807ZM83.5056 79.1334C83.5905 78.7676 83.8384 77.7689 84.4849 76.6148C84.8076 76.0388 85.4761 74.9748 86.6611 73.9541C87.9091 72.8792 90.1293 71.5405 93.1647 71.5405V91.5405C99.15 91.5405 101.721 86.7695 101.933 86.3901C102.608 85.1862 102.881 84.1143 102.988 83.6547L83.5056 79.1334Z" fill="#1CB0F6" mask="url(#path-90-inside-10_2_4733)"/>
<mask id="path-92-inside-11_2_4733" fill="white">
<path d="M93.1647 85.021H55.9412C55.9105 85.021 55.8809 84.9683 55.8592 84.8746C55.8374 84.7808 55.8252 84.6536 55.8252 84.521C55.8252 84.3884 55.8374 84.2612 55.8592 84.1674C55.8809 84.0737 55.9105 84.021 55.9412 84.021H93.1647C93.1955 84.021 93.225 84.0737 93.2467 84.1674C93.2685 84.2612 93.2807 84.3884 93.2807 84.521C93.2807 84.6536 93.2685 84.7808 93.2467 84.8746C93.225 84.9683 93.1955 85.021 93.1647 85.021Z"/>
</mask>
<path d="M93.1647 85.021H55.9412C55.9105 85.021 55.8809 84.9683 55.8592 84.8746C55.8374 84.7808 55.8252 84.6536 55.8252 84.521C55.8252 84.3884 55.8374 84.2612 55.8592 84.1674C55.8809 84.0737 55.9105 84.021 55.9412 84.021H93.1647C93.1955 84.021 93.225 84.0737 93.2467 84.1674C93.2685 84.2612 93.2807 84.3884 93.2807 84.521C93.2807 84.6536 93.2685 84.7808 93.2467 84.8746C93.225 84.9683 93.1955 85.021 93.1647 85.021Z" fill="white"/>
<path d="M93.1647 85.021V95.021V85.021ZM55.9412 85.021V95.021V85.021ZM55.8252 84.521H45.8252H55.8252ZM55.9412 84.021V74.021V84.021ZM93.1647 84.021V94.021V84.021ZM93.2807 84.521H83.2807H93.2807ZM93.1647 75.021H55.9412V95.021H93.1647V75.021ZM55.9412 75.021C58.9765 75.021 61.1967 76.3596 62.4446 77.4343C63.6296 78.455 64.2981 79.5189 64.6208 80.095C65.2675 81.2491 65.5154 82.2479 65.6003 82.6139L46.1181 87.1352C46.2248 87.595 46.4983 88.667 47.1729 89.8709C47.3855 90.2504 49.9563 95.021 55.9412 95.021V75.021ZM65.6003 82.6139C65.7129 83.0989 65.7632 83.4956 65.7881 83.7555C65.8149 84.0338 65.8252 84.289 65.8252 84.521H45.8252C45.8252 85.1511 45.8735 86.0813 46.1181 87.1352L65.6003 82.6139ZM65.8252 84.521C65.8252 84.753 65.8149 85.0082 65.7881 85.2865C65.7632 85.5464 65.7129 85.9431 65.6003 86.4281L46.1181 81.9068C45.8735 82.9607 45.8252 83.8909 45.8252 84.521H65.8252ZM65.6003 86.4281C65.5154 86.7941 65.2675 87.7929 64.6208 88.947C64.2981 89.5231 63.6296 90.587 62.4446 91.6077C61.1967 92.6824 58.9765 94.021 55.9412 94.021V74.021C49.9563 74.021 47.3855 78.7916 47.1729 79.1711C46.4983 80.375 46.2248 81.447 46.1181 81.9068L65.6003 86.4281ZM55.9412 94.021H93.1647V74.021H55.9412V94.021ZM93.1647 94.021C90.1293 94.021 87.9091 92.6824 86.6611 91.6075C85.4761 90.5867 84.8076 89.5227 84.4849 88.9467C83.8384 87.7926 83.5905 86.7939 83.5056 86.4281L102.988 81.9068C102.881 81.4472 102.608 80.3753 101.933 79.1714C101.721 78.792 99.15 74.021 93.1647 74.021V94.021ZM83.5056 86.4281C83.3931 85.9432 83.3428 85.5466 83.3178 85.2867C83.291 85.0084 83.2807 84.7532 83.2807 84.521H103.281C103.281 83.8906 103.232 82.9604 102.988 81.9068L83.5056 86.4281ZM83.2807 84.521C83.2807 84.2888 83.291 84.0336 83.3178 83.7553C83.3428 83.4954 83.3931 83.0987 83.5056 82.6139L102.988 87.1352C103.232 86.0816 103.281 85.1514 103.281 84.521H83.2807ZM83.5056 82.6139C83.5905 82.2481 83.8384 81.2494 84.4849 80.0953C84.8076 79.5193 85.4761 78.4553 86.6611 77.4345C87.9091 76.3596 90.1293 75.021 93.1647 75.021V95.021C99.15 95.021 101.721 90.25 101.933 89.8706C102.608 88.6667 102.881 87.5948 102.988 87.1352L83.5056 82.6139Z" fill="#1CB0F6" mask="url(#path-92-inside-11_2_4733)"/>
<mask id="path-94-inside-12_2_4733" fill="white">
<path d="M74.603 88.5698H55.9407C55.9101 88.5698 55.8807 88.5172 55.859 88.4234C55.8374 88.3296 55.8252 88.2024 55.8252 88.0698C55.8252 87.9372 55.8374 87.81 55.859 87.7163C55.8807 87.6225 55.9101 87.5698 55.9407 87.5698H74.603C74.6336 87.5698 74.663 87.6225 74.6847 87.7163C74.7063 87.81 74.7185 87.9372 74.7185 88.0698C74.7185 88.2024 74.7063 88.3296 74.6847 88.4234C74.663 88.5172 74.6336 88.5698 74.603 88.5698Z"/>
</mask>
<path d="M74.603 88.5698H55.9407C55.9101 88.5698 55.8807 88.5172 55.859 88.4234C55.8374 88.3296 55.8252 88.2024 55.8252 88.0698C55.8252 87.9372 55.8374 87.81 55.859 87.7163C55.8807 87.6225 55.9101 87.5698 55.9407 87.5698H74.603C74.6336 87.5698 74.663 87.6225 74.6847 87.7163C74.7063 87.81 74.7185 87.9372 74.7185 88.0698C74.7185 88.2024 74.7063 88.3296 74.6847 88.4234C74.663 88.5172 74.6336 88.5698 74.603 88.5698Z" fill="white"/>
<path d="M74.603 87.5698V97.5698V87.5698ZM74.603 78.5698H55.9407V98.5698H74.603V78.5698ZM55.9407 78.5698C58.9897 78.5698 61.2151 79.92 62.4602 80.997C63.6431 82.0202 64.309 83.0853 64.6294 83.6598C65.2722 84.8119 65.5182 85.8081 65.6023 86.1719L46.1158 90.6748C46.2215 91.1325 46.4931 92.2018 47.1636 93.4037C47.3667 93.7678 49.9346 98.5698 55.9407 98.5698V78.5698ZM65.6023 86.1719C65.7139 86.6549 65.7637 87.0498 65.7885 87.3083C65.815 87.5852 65.8252 87.839 65.8252 88.0698H45.8252C45.8252 88.6979 45.8731 89.6247 46.1158 90.6748L65.6023 86.1719ZM65.8252 88.0698C65.8252 88.3007 65.815 88.5545 65.7885 88.8315C65.7637 89.0902 65.7138 89.485 65.6023 89.9677L46.1158 85.4648C45.8732 86.5147 45.8252 87.4415 45.8252 88.0698H65.8252ZM65.6023 89.9677C65.5182 90.3316 65.2722 91.3277 64.6294 92.4798C64.309 93.0543 63.6431 94.1195 62.4602 95.1427C61.2151 96.2197 58.9897 97.5698 55.9407 97.5698V77.5698C49.9346 77.5698 47.3667 82.3719 47.1636 82.7359C46.4931 83.9378 46.2215 85.0072 46.1158 85.4648L65.6023 89.9677ZM55.9407 97.5698H74.603V77.5698H55.9407V97.5698ZM74.603 97.5698C71.554 97.5698 69.3287 96.2197 68.0836 95.1427C66.9006 94.1195 66.2348 93.0543 65.9143 92.4798C65.2715 91.3277 65.0255 90.3316 64.9414 89.9677L84.4279 85.4648C84.3222 85.0072 84.0506 83.9378 83.3801 82.7359C83.177 82.3719 80.6091 77.5698 74.603 77.5698V97.5698ZM64.9414 89.9677C64.8299 89.485 64.78 89.0902 64.7552 88.8315C64.7287 88.5545 64.7185 88.3007 64.7185 88.0698H84.7185C84.7185 87.4415 84.6705 86.5147 84.4279 85.4648L64.9414 89.9677ZM64.7185 88.0698C64.7185 87.839 64.7287 87.5852 64.7552 87.3083C64.78 87.0498 64.8298 86.6549 64.9414 86.1719L84.4279 90.6748C84.6706 89.6247 84.7185 88.6979 84.7185 88.0698H64.7185ZM64.9414 86.1719C65.0255 85.8081 65.2715 84.8119 65.9143 83.6598C66.2348 83.0853 66.9006 82.0202 68.0836 80.997C69.3287 79.92 71.554 78.5698 74.603 78.5698V98.5698C80.6091 98.5698 83.177 93.7678 83.3801 93.4037C84.0506 92.2018 84.3222 91.1325 84.4279 90.6748L64.9414 86.1719Z" fill="#1CB0F6" mask="url(#path-94-inside-12_2_4733)"/>
<path d="M103.402 130.754H54.4555C53.7721 130.754 53.1167 130.483 52.6335 130C52.1504 129.516 51.8789 128.861 51.8789 128.178V125.594C51.8789 124.911 52.1504 124.255 52.6337 123.772C53.1169 123.289 53.7724 123.017 54.4558 123.017H103.402C104.085 123.017 104.74 123.289 105.224 123.772C105.707 124.255 105.979 124.911 105.979 125.594V128.178C105.979 128.861 105.707 129.516 105.224 130C104.74 130.483 104.085 130.754 103.402 130.754ZM54.4555 123.25C54.1475 123.25 53.8426 123.31 53.558 123.428C53.2735 123.546 53.0149 123.718 52.7971 123.936C52.5793 124.154 52.4065 124.412 52.2886 124.697C52.1707 124.981 52.11 125.286 52.11 125.594V128.178C52.11 128.799 52.3571 129.396 52.7969 129.836C53.2366 130.275 53.8331 130.522 54.455 130.522H103.402C104.024 130.522 104.62 130.275 105.06 129.836C105.499 129.396 105.746 128.799 105.746 128.178V125.594C105.746 124.972 105.499 124.376 105.06 123.936C104.62 123.497 104.023 123.25 103.402 123.25H54.4555Z" fill="#367CFF"/>
<path d="M99.2471 125.22L100.146 126.721L103.628 125.209L100.49 127.295L101.562 129.084L104.285 124.897L99.2471 125.22Z" fill="#0CBC8B"/>
</g>
<defs>
<linearGradient id="paint0_linear_2_4733" x1="42.733" y1="119.551" x2="42.733" y2="135.908" gradientUnits="userSpaceOnUse">
<stop stop-color="#F89B32"/>
<stop offset="1" stop-color="#FDBF21"/>
</linearGradient>
<linearGradient id="paint1_linear_2_4733" x1="35.2738" y1="139.942" x2="35.2738" y2="147.657" gradientUnits="userSpaceOnUse">
<stop stop-color="#F89B32"/>
<stop offset="1" stop-color="#FDBF21"/>
</linearGradient>
<linearGradient id="paint2_linear_2_4733" x1="33.7859" y1="32.52" x2="33.7859" y2="64.9952" gradientUnits="userSpaceOnUse">
<stop stop-color="#F89B32"/>
<stop offset="1" stop-color="#FDBF21"/>
</linearGradient>
<linearGradient id="paint3_linear_2_4733" x1="14.5173" y1="35.7317" x2="14.5173" y2="61.2545" gradientUnits="userSpaceOnUse">
<stop stop-color="#F89B32"/>
<stop offset="1" stop-color="#FDBF21"/>
</linearGradient>
<linearGradient id="paint4_linear_2_4733" x1="9.89697" y1="37.3447" x2="9.89697" y2="56.9077" gradientUnits="userSpaceOnUse">
<stop stop-color="#F89B32"/>
<stop offset="1" stop-color="#FDBF21"/>
</linearGradient>
<linearGradient id="paint5_linear_2_4733" x1="35.588" y1="36.0376" x2="35.588" y2="59.8512" gradientUnits="userSpaceOnUse">
<stop stop-color="#F89B32"/>
<stop offset="1" stop-color="#FDBF21"/>
</linearGradient>
<clipPath id="clip0_2_4733">
<rect width="140" height="147.838" fill="white"/>
</clipPath>
</defs>
</svg>
